<?xml version="1.0" encoding="UTF-8" standalone="no"?>
<!-- Created with Inkscape (http://www.inkscape.org/) -->

<svg
   xmlns:dc="http://purl.org/dc/elements/1.1/"
   xmlns:cc="http://creativecommons.org/ns#"
   xmlns:rdf="http://www.w3.org/1999/02/22-rdf-syntax-ns#"
   xmlns:svg="http://www.w3.org/2000/svg"
   xmlns="http://www.w3.org/2000/svg"
   xmlns:sodipodi="http://sodipodi.sourceforge.net/DTD/sodipodi-0.dtd"
   xmlns:inkscape="http://www.inkscape.org/namespaces/inkscape"
   sodipodi:docname="cut1.svg"
   inkscape:version="0.92.1 r"
   id="svg8"
   version="1.1"
   viewBox="0 0 210 297"
   height="297mm"
   width="210mm">
  <sodipodi:namedview
     inkscape:window-maximized="1"
     inkscape:window-y="0"
     inkscape:window-x="0"
     inkscape:window-height="999"
     inkscape:window-width="1920"
     showborder="true"
     showgrid="false"
     inkscape:current-layer="svg8"
     inkscape:document-units="mm"
     inkscape:cy="608.21932"
     inkscape:cx="263.58678"
     inkscape:zoom="0.35355339"
     inkscape:pageshadow="2"
     inkscape:pageopacity="0.0"
     borderopacity="1.0"
     bordercolor="#666666"
     pagecolor="#ffffff"
     id="base"
     inkscape:snap-nodes="true"
     inkscape:object-paths="true"
     inkscape:snap-intersection-paths="true"
     inkscape:snap-smooth-nodes="true"
     inkscape:snap-midpoints="true" />
  <defs
     id="defs2">
    <clipPath
       clipPathUnits="userSpaceOnUse"
       id="clipPath895">
      <path
         d="m 4305.9,3229.98 c -38.35,63.19 -105.63,107.59 -164.43,66.62 -1.23,49.69 -38.92,97.6 -95.46,100.13 l 31.73,24.89 -21.72,11.01 c 50.56,18.4 95.62,52.17 126.2,96.43 l 18.95,27.41 -35.28,14.39 c 34.75,25.52 63.03,60.16 80.91,99.31 41.12,-99.13 63.86,-207.8 63.86,-321.81 0,-40.07 -1.67,-79.5 -4.76,-118.38 z m -117.94,-130.46 c 14.74,29.47 16.72,64.99 -3.18,99.94 -13.76,24.15 -33.82,38.9 -56.04,45.88 4.17,7.17 7.17,14.55 9.31,22.15 94.4,-11.67 155.63,-139.15 103.29,-218.58 -13.48,20.97 -31.88,38.73 -53.38,50.61 z m -51.73,-427.65 c -13.61,-24.29 -28.01,-48.33 -43.19,-72.15 -15.19,-23.82 -31.16,-47.42 -47.91,-70.79 -2.34,-3.27 -4.81,-6.49 -7.17,-9.74 -28.48,46.67 -70.36,85.22 -118.93,110.96 16.09,12.77 27.44,30.03 31.16,52.58 97.94,-34.04 256.36,67.76 218.79,169.98 25.47,5.24 49.08,18.39 66.79,39.93 -26.32,-75.8 -59.49,-149.32 -99.54,-220.77 z m -376.19,-288.58 -35.03,0.14 7.77,-33.03 c 2.89,-12.33 5.86,-24.65 8.83,-36.97 -18.6,-4.58 -37.89,-6.89 -57.6,-6.89 -43.55,0 -85.79,11.27 -122.14,32.6 l -63.62,37.32 58.02,-161.58 c -31.69,1.44 -70.97,6.31 -107.59,19.44 -24.63,8.76 -49.9,19.69 -75.12,32.49 -6.99,3.53 -54.33,30.99 -66.07,38.92 l -34.36,23.19 -2.57,-15.08 c -11.01,3.67 -22.27,6.58 -33.73,8.52 34.67,20.21 69.33,40.31 104,60.52 -33.34,29.7 -74.78,57.97 -116.7,73.48 -13.18,4.92 -26.58,9.26 -40.11,13.17 23.21,16.06 45.09,35.07 63.95,56.27 1.37,-2.7 2.7,-5.43 4.22,-8.04 20.02,-34.53 52.19,-61.07 88.06,-78.57 -0.61,1.92 -1.45,14.56 -2.05,21.09 6.03,-2.09 28.75,-8.26 32.31,-9.01 11.63,-2.47 23.46,-4.3 35.34,-5.26 21.14,-1.78 44.64,2.01 64.95,8.06 -3.32,4.8 -6.64,9.6 -9.96,14.39 136.08,-23.99 275.58,-20.25 403.52,12.4 22.61,5.81 44.87,12.45 66.79,19.92 -53.06,-11.68 -104.98,-23.29 -159.97,-27.63 -19.58,-1.54 -41.03,-2.16 -61.51,-1.67 -9.49,0.3 -34.38,-2.45 -58.6,0.05 32.95,28.86 65.91,67.28 88.68,105.2 -31.41,-29.33 -93.62,-91.05 -112.82,-96.05 -16.56,-4.32 -81.96,1.65 -99.45,4.14 -15.3,2.17 -26.79,3.47 -44.96,11.02 1.24,1.17 2.61,2.03 4.04,2.85 16.16,2.7 31.74,8.84 45.21,18.16 -1.34,2.48 -2.68,4.97 -4.03,7.45 33.94,24.89 62.04,56.02 85.93,90.92 3.94,5.95 6.08,9.22 6.08,9.22 0,0 -2.93,-2.76 -8.08,-7.66 -2.04,-1.96 -4.28,-3.96 -6.45,-5.95 2.13,4.31 4.11,8.71 5.74,13.24 -24.14,25.64 -60.53,39.28 -95.61,35.81 6.68,8.01 13.31,16.04 19.99,24.05 -33.87,17.51 -76.13,17.82 -110.3,0.81 l 0.9,1.28 c 42.44,26.22 78.59,62.2 101.44,104.28 2.85,5.27 5.51,10.77 8.03,16.42 29.65,-1.74 58.99,-6.76 87.16,-14.96 -0.31,-5.34 -0.56,-10.69 -0.44,-16.09 l -89.85,-75.31 98.86,20.22 c 8.65,-27.9 23.44,-53.74 45.03,-73.28 33.84,-33.15 106.86,-51.91 169.21,-44.54 58.87,-16.64 111.78,-55.76 144.56,-107.33 -54.59,-69.55 -141.17,-112.14 -229.9,-112.14 z m -61.87,-222.09 c -69.84,-58.84 -149.31,-125.23 -241.03,-199.83 -0.97,81.34 -38.38,161.92 -100.98,214.07 11.12,8.3 22.28,16.5 33.43,24.72 13.8,-5.98 27.53,-11.42 41.09,-16.24 53.21,-19.08 110.04,-23.08 148.34,-23.08 5.46,0 10.85,0.08 16.19,0.24 l 36.85,1.09 -37.5,104.4 c 28.61,-8.94 58.78,-13.55 89.45,-13.55 34.12,0 67.29,5.71 98.59,16.96 l 22.57,8.11 -9.86,40.96 c -0.98,4.09 -1.98,8.2 -2.97,12.3 41.85,4.09 82.66,16.12 120.22,34.69 -63.94,-70.06 -135.36,-138.25 -214.39,-204.84 z M 3111.6,1688.5 c -10.58,-8.11 -21.27,-16.3 -32.08,-24.55 -21.62,-16.5 -43.7,-33.28 -66.27,-50.34 -25.07,-18.94 -50.79,-38.26 -77.06,-57.89 11.67,31.4 17.29,65.19 16.06,98.64 l 33.19,-18.71 9.72,31.87 c 15.69,51.47 14.17,107.74 -2.81,158.8 l 22.11,-10.18 -0.21,42.01 c -0.13,27.07 -3.46,53.89 -9.62,79.99 17.46,-7.86 35.51,-14.4 54.01,-19.36 -3.81,21.63 -7.63,43.38 -11.44,65.02 49.98,-63.02 130.86,-100.24 211.13,-97.13 -5.57,21.25 -11.03,42.5 -16.61,63.75 48.72,-29.02 107.83,-39.62 163.77,-30.87 -86.87,-70.02 -184.11,-146.82 -293.89,-231.05 z m -240.81,-146.22 c -66.31,16.3 -124,63.08 -153.04,125.19 l -14.36,30.71 -26.54,-21.11 c -6.56,-5.22 -13.1,-10.48 -19.63,-15.73 -28.45,37 -42.63,84.46 -38.46,131.08 l 2.78,31.12 c 24.1,4.5 48.34,13.15 70.63,24.89 30.08,-83.3 73.33,-160.65 127.57,-226.19 11.95,-14.39 24.39,-28.25 37.31,-41.58 -26.64,34.45 -52.83,68.1 -74.81,106.45 -7.82,13.67 -15.61,29 -22.27,44.01 -3.03,6.97 -13.55,24.07 -20.03,42.48 32.2,-14 71.32,-24.72 106.59,-28.24 -32,12.72 -98.03,36.66 -108.22,48.86 -7.42,8.88 -21.41,45.36 -28.13,64.71 10.05,6.38 19.53,13.36 28.18,20.88 28.99,-15.3 60.32,-24.69 92.89,-29.91 5.66,-0.82 8.77,-1.25 8.77,-1.25 0,0 -3.01,1.18 -8.32,3.24 -23.91,9.12 -52.38,23.58 -78.04,42.67 8.63,9.29 16.03,19.13 21.77,29.36 12.49,25.49 17.51,53.49 16.38,81.11 l 0.78,-0.27 c 9.16,-3.03 17.12,-4.39 22.44,-6.01 5.42,-1.3 8.54,-2.07 8.54,-2.07 0,0 -2.82,1.46 -7.88,4 -5.94,3.04 -14.6,8.26 -24.45,14.54 -1.69,17.39 -5.8,34.49 -12.28,50.53 3.68,0.11 7.2,0.47 10.73,0.81 11.88,-14.08 25.45,-26.71 40.82,-37.17 0.96,16.18 1.98,32.37 2.98,48.55 2.63,1.21 5.14,2.57 7.64,3.93 24.05,-39.38 55.76,-73.92 92.61,-101.68 11.18,-25.16 19.28,-51.7 23.49,-78.77 l -109.03,50.28 63.44,-84.66 c 31.93,-42.6 45.97,-97.92 39.4,-150.59 l -77.38,43.65 18.07,-62.86 c 14.75,-51.31 6.66,-109.21 -20.94,-154.96 z m -361.57,251.48 c -10.6,-4.92 -21.73,-8.45 -33.18,-10.49 -3.41,-0.64 -6.86,-1.02 -10.3,-1.43 2.75,-2.18 -57.66,45.67 -89.19,70.58 35.25,3.52 69.65,16.18 98.31,37.79 14.56,-38 42.92,-58.77 76.75,-66.58 -11.99,-12.42 -26.44,-22.37 -42.39,-29.87 z m -280.23,264.61 -0.02,0.15 c 40.48,-1.18 81.7,14.55 110.29,45.71 9.88,-6.25 20.87,-11.2 32.32,-14.69 28.62,-10.07 53.86,-5.77 73.7,6.95 17.14,-18.71 39.85,-31.56 64.5,-38.28 l -0.13,-0.16 c -63.37,-70.33 -261.07,-112.72 -280.66,0.32 z m -22.8,2.57 c -14.59,-15.53 -20.21,-35.7 -19.73,-57.04 -51.82,42.03 -102.61,84.18 -153.87,128.44 -35.75,30.86 -71.19,63.25 -106.03,96.97 13.82,38.49 41,72.65 78.93,101.37 22.59,-41.54 58.02,-70.97 103.94,-71.08 v 0 c -20.69,-44.57 -15.17,-98.39 10.84,-140.07 20.55,-32.91 52.02,-52.02 85.94,-58.58 z m -366.29,256.49 c -56.38,60.3 -110.31,124.12 -160.34,190.82 57.43,-6.69 117.56,9.55 163.16,45.28 -2.57,-19.78 -5.04,-39.54 -7.61,-59.31 72.62,6.45 141.16,49.27 178.89,111.77 -0.72,-15.36 -1.44,-30.76 -2.17,-46.14 -41,-49.36 -44.26,-136.65 -17.79,-204.56 -52.01,-1.61 -99.62,-22.96 -137.02,-55.98 -5.73,6.01 -11.44,12.04 -17.12,18.12 z m -239.91,304.62 c -8.28,12.76 -16.4,25.61 -24.35,38.53 -31.82,51.69 -60.96,104.68 -86.86,158.7 -2.94,6.13 -5.82,12.28 -8.67,18.43 l 4.29,-2.02 c 20.62,-9.73 43.93,-14.87 67.43,-14.87 1.22,0 2.44,0.01 3.66,0.04 l -4.25,-6.56 41.61,-5.85 c 32.13,-4.54 65.82,-1.35 96.65,8.72 l -4.01,-11.2 6.32,1.25 c -8.79,-12.37 -16.29,-25.64 -22.21,-39.64 14.68,-8.19 29.47,-16.37 44.16,-24.66 -46.81,-50.37 -71.17,-120.35 -67.54,-188.88 -4.51,6.45 -29.1,41.62 -46.23,68.01 z m -84.68,368.25 32.5,9.79 -17.09,29.31 -0.82,1.39 c 12.24,4.91 25.81,7.07 39.11,6.68 16.57,-15.3 36.06,-27.29 57.96,-34.46 -53.28,-9.48 -104.31,-27.99 -148.64,-54.96 -9.03,-5.51 -17.8,-11.34 -26.31,-17.48 21.45,12.1 42.41,24.01 65.67,33.17 8.28,3.26 17.5,6.37 26.44,8.87 4.15,1.13 14.58,5.62 25.4,7.75 -10.46,-16.88 -19.65,-37.9 -24.49,-57.34 9.72,16.87 28.51,51.86 36.17,56.57 6.6,4.06 35.74,10.14 43.65,11.38 6.91,1.09 12.07,2.05 20.95,1.18 -0.61,-1.05 -1.41,-1.82 -2.27,-2.7 -18.97,-18.7 -30.98,-41.58 -38.76,-66.41 -0.92,-3.1 -1.42,-4.8 -1.42,-4.8 0,0 0.91,1.58 2.5,4.38 12.66,22.68 36.03,52.26 64.73,64.88 4.59,-18.61 12.87,-35.45 24.05,-50.37 l -92.38,-50.26 c -18.1,-9.85 -39.85,-14.09 -61.1,-12.01 l 36.46,47.12 -64.77,-8.8 c -23.47,-3.24 -49.08,3.14 -68.95,16.54 14.41,28.48 41,51.42 71.41,60.58 z m -95.5,-1.23 c -1.78,5.36 -3.57,10.72 -5.28,16.1 -4.47,14.01 -8.69,28.06 -12.66,42.16 -4.18,14.85 -8.06,29.74 -11.67,44.68 44.26,-10.47 90.65,-8.49 133.72,10.1 2.17,-5.18 4.65,-10.22 7.26,-15.18 -19.56,-4.68 -38.13,-12.98 -54.11,-24.92 l -19.21,-14.35 11.15,-18.94 c -18.68,-10.05 -35.35,-23.63 -49.2,-39.65 z m -61.17,359.29 c 0,61.66 6.71,121.75 19.31,179.64 16.58,15.48 37.34,28.36 58.52,28.28 12.84,-21.62 26.86,-41.64 38.85,-51.91 l 0.07,-0.06 c -35.98,-45.61 -54.74,-108.92 -33.64,-162.88 15.94,-40.74 47.53,-71.99 84.66,-89.94 l -0.03,-0.06 c -12.2,-24.72 -17.88,-52.45 -17.34,-80.06 0.21,-9.85 1.18,-19.7 3,-29.33 -60.03,15.15 -113.07,49.85 -147.81,99.77 -3.67,35.38 -5.59,70.92 -5.59,106.55 z m 129.21,288.09 c 19.91,52.35 65.5,83.39 116.24,103.08 79.21,31.05 206.37,61.87 264.39,-14.98 l 0.05,-0.07 c -56.32,-15.52 -104.42,-63.77 -103.43,-122.52 -35.52,22.42 -85.75,18.79 -121.1,-27.49 -5.7,-7.51 -10.14,-15.03 -13.59,-22.48 -47.42,29.49 -103.21,8.38 -143.41,-34.26 l -0.01,0.02 c -18.41,31.9 -7.49,89.91 0.86,118.7 z m 50.08,230.88 c 29.11,37.05 61.28,71.59 96.11,103.25 4.97,4.52 10,8.98 15.09,13.39 128.39,111.21 290.83,184.12 469.58,201.11 -26.38,-30.45 -43.21,-68.88 -47.57,-108.93 l -26.16,4.55 -6.66,-23.04 c -1.77,-6.11 -3.11,-12.32 -4.15,-18.57 -69.7,13.38 -142.06,0.33 -198.87,-46.19 -29.01,-23.77 -63.37,-65.73 -71.29,-107.36 -0.21,-0.86 -0.43,-1.82 -0.54,-2.79 -2.89,1.07 -5.88,1.93 -8.88,2.79 -52.02,14.98 -109.82,13.7 -162.81,0 -19.17,-4.96 -37.54,-11.64 -54.96,-19.65 z m 627,289.01 c 25.75,-16.92 45.07,-44.06 51.94,-74.06 l 14.59,-63.77 35.01,56.9 c 14.18,-24.64 20.33,-54 16.4,-82.23 l -0.5,-3.58 c -8.05,14.44 -16.09,28.87 -24.16,43.31 -22.14,-23.94 -43.32,-53.83 -55.21,-84.24 -2.22,-5.64 -4.12,-11.41 -6.08,-17.15 -8.72,12.05 -18.64,23.24 -29.27,33.8 -0.45,5.73 -0.59,10.64 -0.08,13.25 2.01,10.37 32.71,45.52 47.23,63.2 -19.38,-13.38 -38.68,-32.19 -52.91,-50.68 -2.15,12.79 -1.53,26.11 -2,31.14 -0.95,10.87 -1.35,22.29 -1.19,32.75 0.45,29.36 4.86,57.35 9.28,85.94 -3.23,-11.9 -6,-23.95 -8.33,-36.16 -7.68,-40.71 -9.69,-83.23 -6.68,-125.91 -17.03,14.7 -35.78,27.77 -56.31,38.58 l 29.46,-4.97 -2.28,33.83 c -2.7,39.83 13.12,81.32 41.09,110.05 z m 151.17,24.52 c 82.86,-11.55 161.82,-35.22 235.1,-69.11 -53.78,-4.06 -105.97,-29.52 -141.31,-70.4 -7.92,11.03 -15.76,22.14 -23.6,33.16 -13.43,-7.49 -25.59,-17.05 -36.51,-27.88 l -13.45,24.64 -6.54,-8.89 c -8.86,29.74 -25.06,57.29 -47.33,78.86 l -23.95,23.21 -11.14,-18.12 c -9.95,15.98 -22.51,30.33 -36.88,42.45 -3.76,0.05 67.41,-2.6 105.61,-7.92 z m 155.72,-182.92 c -9.04,-8.87 -18.43,-19.03 -26.87,-29.2 -3.88,-4.74 -15.76,-15.68 -24.81,-28.51 28,3.79 60.64,3.53 88.72,-1.46 -27.56,-2.85 -83.93,-6.94 -94.5,-14.15 -3.07,-2.1 -7.95,-7.43 -13.28,-13.89 l -2.67,16.13 -11.77,-9.96 -0.07,1.98 c 37.4,46.98 80.81,88.19 128.49,121.09 12.41,8.53 25.07,16.54 37.99,24.04 -28.17,-20.85 -55.82,-41.18 -81.23,-66.07 z m 430.99,-169.88 c -39.82,-30.51 -73.22,-83.07 -84.78,-137.44 -70.32,60.15 -181.22,64.22 -272.52,28.47 81.99,90.45 235.06,121.28 357.3,108.97 z m -308.42,262.23 c -3.23,1.72 129.26,-80.39 187.6,-136.59 -34.01,5.48 -69.26,3.71 -102.47,-6.29 -22.27,-6.7 -45.22,-18.38 -66.73,-33.68 4.68,17.03 7.03,34.68 6.67,52.34 -15.59,-3.79 -31.18,-7.49 -46.77,-11.28 24.76,39.9 32.43,89.87 21.7,135.5 z m 342.24,-98.86 c -0.11,1.33 -0.21,3.4 -0.31,5.86 3.18,2.62 6.28,5.34 9.5,7.91 24.38,19.5 49.9,37.63 76.39,54.36 l 12.14,-14.04 -0.37,21.37 c 7.16,4.35 14.36,8.63 21.66,12.78 12.87,7.32 25.95,14.31 39.24,20.95 l 0.43,0.22 c -22.64,-44.58 -40.27,-92.33 -51.94,-141.64 -5.99,-25.29 -10.35,-51.16 -13.22,-77.28 -18.69,-3.45 -37.06,-8.36 -54.78,-14.94 -23.56,24.55 -42.3,55.12 -55.28,90.25 l 19.86,-7.11 z m 293.58,162.65 -12.98,-35.38 67.52,31.92 c -0.18,-37.04 -13.58,-74.11 -37.93,-102.16 l -69.21,-79.72 98.79,37.11 c -12.71,-45.23 -39.14,-87.07 -74.91,-116.96 l -16.46,-13.75 c -36.83,10.23 -75.67,14.18 -114.09,11.78 2.88,2.68 5.59,4.95 7.33,6.3 9.78,7.65 70.23,43.98 90.72,52.65 4.09,1.69 6.36,2.68 6.36,2.68 0,0 -2.47,-0.43 -6.76,-1.14 -4.24,-0.97 -10.52,-1.58 -17.82,-3.43 -18.34,-4.64 -36.36,-9.98 -53.86,-17.44 -7.53,-3.26 -15,-6.77 -22.32,-10.58 -4.77,-2.52 -9.78,-4.33 -14.44,-7 -0.82,13.92 3.27,30.48 5.57,44.18 9.73,57.85 78.11,93.91 124.08,107.76 4.26,1.31 6.67,2.06 6.67,2.06 0,0 -2.45,-0.16 -6.91,-0.48 -35.81,-3.13 -70.23,-12.55 -101.1,-32.58 -1.44,-0.89 -2.71,-1.76 -4.32,-2.26 1.47,12.24 4.29,18.9 7.81,27.91 4.02,10.31 20.87,47.81 28.32,55.52 8.63,8.93 97.56,39.33 109.94,43.01 z m 84.27,-708.16 -0.03,-0.1 -0.63,0.49 c -87.73,60.83 -167.43,39.02 -256.69,19.93 -6.22,68.13 -54.38,136.19 -123.92,149.49 -31.45,7.18 -64.77,7.87 -95.91,1.37 33.84,146.09 240.31,164.93 355.37,101.03 101.26,-56.2 145.68,-167.95 121.81,-272.21 z m 21.91,732.36 c 43.54,6.97 88.18,10.65 133.69,10.65 80.8,0 158.93,-11.42 232.88,-32.7 -64.29,-6.69 -126.12,-37.75 -168.48,-86.75 -9.85,13.7 -19.59,27.51 -29.33,41.21 -54.48,-30.4 -94.41,-85.74 -105.97,-147.07 -17.77,31.79 -35.43,63.58 -53.2,95.37 -2.72,-2.94 -5.42,-6.01 -8.11,-9.1 l 2.87,37.35 -14.28,-5.38 c 10.62,30.85 14.15,64.12 9.93,96.42 z m 93.05,-992.36 -0.02,0.01 c 2.74,81.61 -19.92,164.63 -74.55,224.28 l 0.18,0.18 c 49.77,53.62 65.19,127.05 54.8,199.73 73.11,-53.3 111.11,-162.27 127.92,-243.73 17.44,-84.67 8.45,-168.26 -25.69,-244.48 -20.66,28.8 -48.06,51.38 -82.64,64.01 z M 2813.21,2545.4 c 42.07,23.44 73.33,56.3 81.35,100.72 l 0.01,0.02 c 85.26,-14.69 179.48,-4.78 251.65,34.12 31.25,-23.33 67.32,-35.74 104.68,-38.95 -67.97,-44.75 -156.49,-70.54 -228.96,-88.42 -70.54,-17.34 -139.04,-17.66 -208.73,-7.49 z m -52.99,-22.97 c 5.87,1.97 11.67,4.04 17.35,6.27 21.94,-31.88 50.47,-57.52 82.81,-76.67 -18.77,-13.72 -36.1,-29.44 -51.54,-46.85 -3.04,42.87 -19.84,84.78 -48.62,117.25 z M 2619.35,2296 c 6.11,23.77 3.08,50.93 -13.21,77.73 -19.35,31.85 -53.63,50.61 -89.68,42.02 2.26,12.29 5.45,30.84 1.49,54 -2.55,16.13 -8.4,34.98 -19.57,53.59 110.29,-23.46 265.45,-171.21 175.51,-282.84 -10.62,24.36 -28.89,44.64 -54.54,55.5 z m -139.34,-63.49 c 53.38,-23.13 106.16,-0.68 129.64,39.74 41.76,-92.03 -52.5,-160.96 -144.06,-157.77 25.86,30.91 34,79.48 14.42,118.03 z m -27.27,82.59 c 10.07,18.91 56.46,54.95 74,26.37 30.59,-49.84 -3.52,-81.4 -49.16,-104.39 -0.79,1.36 -1.67,2.68 -2.53,4.01 23.14,26.02 2.81,61.78 -22.31,74.01 z m -72.8,-66.79 c 3.78,-5.83 8.41,-11.09 14,-15.25 18.34,-13.64 44.7,-15.49 64.77,-4.56 1.22,0.67 2.26,1.38 3.39,2.07 -10.84,-33.48 -32.29,-67.97 -69.64,-57.98 -34.69,11.92 -35.8,50.44 -12.52,75.72 z m -41.42,89.89 c 25.93,12.24 52.54,12.58 75.94,1.29 -21.37,-5.75 -38.96,-24.02 -43.52,-45.71 -2.32,-11.02 -1.19,-22.6 2.72,-33.16 -11.76,-0.39 -23.17,-4.63 -33.43,-11.42 -28.36,20.03 -42.18,74.68 -1.71,89 z m -203.4,146.93 c 36.86,39.22 82.8,53.17 132.79,54 l -0.87,-1.11 c -21.33,-30.33 -25.78,-65.09 -20.58,-89.89 4.62,-25.26 16.45,-41.84 25.09,-51.31 l 1.1,-1.19 c -20.22,-19.47 -27.45,-47.09 -25.57,-74.15 -40.79,23.88 -94.1,-1.9 -122.4,-37.12 l -0.05,0.07 c -38.97,55.77 -33.83,153.71 10.49,200.7 z m 19.8,137.98 c -11.39,-0.03 -22.82,-1.14 -34.13,-3.19 14.76,14.9 28.11,31.19 39.86,48.56 -4.36,-14.61 -6.56,-29.8 -5.73,-45.37 z m 38.25,104.75 -1.52,-1.92 c 0.42,1.01 0.9,2 1.31,3.02 z m 106.64,963.53 c -1.1,-4.68 -2.08,-9.39 -3.07,-14.11 -11.98,-3.97 -23.63,-8.83 -34.89,-14.43 2.18,8.87 4.65,17.64 7.16,26.41 4.8,1.17 9.6,2.42 14.35,3.93 10.07,3.24 19.72,7.22 28.9,11.89 -5.91,-4.16 -11.37,-9.11 -12.45,-13.69 z m 117.14,-73.45 c -4.49,-7.28 -8.56,-14.78 -11.99,-22.59 -30.4,-68.83 -26.97,-150.6 2.25,-219.97 -19.88,0.33 -38.42,-2.97 -55.58,-9.2 -20.78,40.07 -49.68,76.22 -83.85,99.28 1.87,3.74 3.84,7.47 5.95,11.18 33.61,59.09 86.17,105.54 143.22,141.3 z m -6.63,131.76 c 7.76,0.35 14.22,-0.34 18.69,-0.26 4.48,-0.17 7.07,-0.25 7.07,-0.25 0,0 -2.5,-0.52 -6.98,-1.38 -21.66,-4.32 -85.95,-26.76 -100.86,-33.48 3.6,2.32 7.17,4.68 10.58,7.23 9.49,7.08 18.14,15.13 25.87,23.92 15.14,2.34 30.33,3.55 45.63,4.22 z m 63.74,109.82 c -19.61,-1.74 -43.51,-6.37 -66.59,-14.78 0.42,5.29 0.58,10.57 0.45,15.84 21.85,3.3 44.02,3.18 66.23,0.58 4.56,-0.6 7.06,-0.95 7.06,-0.95 0,0 -2.58,-0.26 -7.15,-0.69 z m 64.92,-615.26 0.06,-0.02 c -80.51,-82.5 -92.58,-223.39 -7.05,-334.38 5.31,-6.92 10.85,-13.37 16.5,-19.59 l -0.09,0.01 c -91.95,13.7 -170.84,81.56 -200.38,177.9 -1.63,5.33 -3.04,10.7 -4.39,16.07 4.05,6.54 7.91,13.21 11.45,20.11 21.52,41.85 33.29,90.13 31.58,139.58 -0.62,17.33 -3.6,35.84 -8.56,54.62 12.81,15.86 28.36,29.82 47.2,40.97 1.07,-1.82 2.14,-3.64 3.21,-5.36 15.95,-25.58 36.82,-48.49 61.44,-65.93 15.2,-10.71 31.69,-18.2 49.03,-23.98 z m 359.01,119.87 c -6.37,-1.79 -12.39,-4.59 -17.87,-8.13 -19.57,47.15 -67.91,68.85 -113.15,61.3 38.29,97.95 232.59,78.53 231.13,-70.69 -29.03,16.87 -67.05,26.81 -100.11,17.52 z m 153.76,-104.34 c 35.65,-44.1 26.07,-101.74 -1.24,-149.57 0.69,21.85 -7.97,43.14 -30.93,60.35 1.05,-87.33 -113.03,-124 -179.84,-85.18 38.36,0.61 75.13,20.52 91.16,62.47 64.34,-25.66 121.34,45.63 120.85,111.93 z m 95.91,-301.49 c -56.71,-14.53 -114.59,15.9 -163.22,49.59 18.13,12.17 35.52,29.57 47.92,49.14 174.91,-23.14 139.74,252 15.78,229.84 -1.44,5.19 -3.32,10.26 -5.67,15.13 -8.33,17.36 -22.92,31.07 -39.04,41.35 36.66,25.24 53.33,63.78 54.33,104.15 39.37,1.05 84.89,-9.61 122.66,-28.18 96.19,-46.21 121.13,-148.69 105.89,-247.3 -12.17,-78.79 -51.29,-191.07 -138.65,-213.72 z m -392.88,-152.55 c 90.06,9.44 169.89,74.47 190.45,185.63 6.3,1.38 12.55,3.22 18.68,5.54 43.49,-76.45 115.38,-140.73 208.18,-136.29 10.8,0.51 21.31,1.9 31.54,4 -32.9,-38.74 -72.23,-66.16 -130.88,-77.42 -92.07,-17.68 -226.5,-30.73 -317.97,18.54 z m 108.19,532.86 c -5.31,-9.08 -8.81,-20.75 -9.54,-31.26 -0.4,-5.65 -0.04,-11.35 1.06,-16.9 -34.89,11.54 -72.9,5.32 -99.26,-15.77 2.96,55.18 46.74,95.45 115.87,74.13 -3.06,-3.04 -5.88,-6.36 -8.13,-10.2 z m 52.21,-178.96 c 6.86,6.14 12.43,13.65 15.82,22.26 20.11,48.64 -19.11,92.76 -63.53,105.93 7.06,7.96 16.16,14.12 26.17,17.69 6.37,2.27 13.11,3.55 19.88,3.63 7.04,0.08 11.58,-2.8 17.33,-6.7 22.56,-15.3 37.1,-42.52 39.53,-69.43 1.44,-15.86 -1.87,-32.13 -11.29,-45.17 -5.13,-7.1 -11.81,-12.95 -19.29,-17.47 -4.32,-2.61 -8.89,-4.77 -13.6,-6.58 -1.49,-0.57 -6.89,-2.95 -11.02,-4.16 z m -84.21,-0.43 c -8.69,7.53 -15.32,17.39 -18.56,28.93 -6.88,24.45 3.5,50.88 28.53,58.93 11.1,3.58 23.11,3.76 34.64,3.03 3.42,-0.21 6.82,-0.72 10.22,-1.11 2.07,-4.06 3.97,-8.2 5.51,-12.48 5.93,-16.41 3.32,-35.03 -6.56,-49.46 -11.46,-16.74 -33.05,-26.95 -53.78,-27.84 z m 79.07,-3.85 c 0.96,0.69 1.8,1.52 2.72,2.26 1.74,-1.19 3.48,-2.38 5.22,-3.42 -11.46,-5.34 -23.71,-9.14 -36.17,-10.26 10.33,2.58 19.2,4.87 28.23,11.42 z m -185.57,21.23 c 9.45,-47.95 45.72,-78.37 85.85,-87.98 -2.54,-29.65 7.91,-53.62 25.78,-70.68 -88.49,-21.52 -145.99,121.03 -134.19,218.56 6.06,-7.5 13.11,-14.24 21,-20.03 -1.63,-12.07 -1.3,-25.36 1.56,-39.87 z m -72.38,-115.83 c 35.66,-62.63 151.46,-132.47 197.84,-53.71 19.74,-12.9 44.75,-19.46 70.42,-18.71 -33.44,-35.41 -72.55,-68.2 -120.79,-75.43 -71.15,-9.69 -132.75,48.54 -168.29,103.58 -58.1,89.99 -40,168.05 16.19,232.01 -31.93,-53.42 -25.13,-135.48 4.63,-187.74 z m -283.21,-253.3 c -4.01,12.29 -7.29,25.08 -9.52,38.5 79.64,-43.46 175.98,-53.42 249.51,-6.11 l 0.12,0.08 c 21.94,-13.36 44.91,-22.82 68.15,-28.57 13.83,-76.9 86.09,-130.81 175.57,-155.86 l -0.11,-0.08 c -71.32,-47.22 -184.87,-25.02 -263.3,-16.17 -14.02,93.41 -123.91,162.75 -220.42,168.21 z m 117.11,-266.52 c -2.13,2.61 -4.29,5.21 -6.68,7.75 -24.8,26.18 -63.44,44.29 -106.59,44.28 -21.51,-1.07 -43.15,-5.27 -61.61,-16.04 -8.8,-4.45 -16.59,-10.03 -23.57,-16.17 -22.28,28.64 -52.11,47.27 -84.88,56.02 93.98,85.53 277.12,62.51 355.26,-36.5 -3.85,-1.07 -7.7,-2.25 -11.45,-3.64 -13.1,-4.75 -48.11,-18.45 -60.48,-35.7 z m -40.06,-193.43 c -9.88,67.5 -105.59,94.51 -162.31,56.85 -0.7,11.38 -0.08,26.8 5.64,42.56 5.49,16.71 16.94,32.19 32.1,43.45 7.63,5.49 15.79,10.15 24.57,12.37 8.23,3.38 18.1,3.71 28.09,4.61 20.47,-0.27 41.77,-4.77 59.06,-14.18 17.86,-9.79 33.42,-24.38 45.09,-39.26 12.09,-14.8 19.18,-29.85 24.76,-40.52 l 0.79,-1.85 c -24.87,-10.59 -49.01,-36.19 -57.79,-64.03 z m -10.17,-45.42 c 7.19,-2.99 14.13,-9.91 13.62,-18.26 -1.44,-23.67 -36.85,-20.76 -46.59,-4.99 -7.96,12.9 -2.59,32.09 10.91,38.97 4.24,2.17 9.04,3.23 12.98,5.9 1.91,1.29 3.56,3.18 4.56,5.27 3.79,-3.04 7.43,-6.48 10.94,-10.26 -13.72,2.71 -27.27,-2.57 -34.78,-21.02 3.28,8.06 22.32,6.9 28.36,4.39 z m 382.38,1309.95 0.02,-0.08 c -42.8,-13.62 -79.47,-42.13 -98.08,-88.1 -14.5,-35.79 -15.62,-87.03 3.9,-124.18 -10.32,-7.22 -19.79,-16.29 -27.59,-27.79 -13.34,-19.05 -19.45,-40.18 -19.88,-61.02 -44.39,-5.62 -82.57,-21.8 -113.46,-45.41 -5.46,7.17 -10.91,14.55 -16.15,21.82 -6.21,8.56 -13.28,16.91 -16.59,26.97 -2.68,8.25 -6.1,16.17 -8.46,24.62 -4.6,16.27 -7.38,33.08 -8.88,49.99 -4.82,56.2 0.64,122.56 35,169.55 52.34,71.5 174.58,116.25 266.63,111.32 -2.14,-19.69 -1.17,-39.17 3.54,-57.69 z m -1121.9,-676.93 c -0.53,-1.04 -1.13,-2.04 -1.65,-3.09 -2.45,-4.87 -3.86,-9.21 -5.19,-12.06 -1.18,-2.92 -1.86,-4.61 -1.86,-4.61 0,0 1.04,1.46 2.88,4.08 2.02,2.86 5.3,6.87 9.2,11.42 9.13,-10.96 19.82,-20.82 31.71,-29.52 l -10.2,-7.89 c -21.72,-16.79 -47.82,-27.73 -75.25,-31.76 l 48.93,75.23 z m 100.95,573.55 c -27.69,1.12 -62.83,-24.45 -60.26,-56.65 l -2.24,-0.17 c -25.99,17.06 -46.57,39.41 -22.53,70.79 28.85,38.03 60.14,13.47 85.03,-13.97 z m 162.54,20.44 c -49.09,34.72 -126.86,28.74 -119.16,-50.22 4.74,4.51 9.35,7.99 13.79,10.6 -0.76,-25.52 -29.56,-60.86 -52.86,-56.8 -20.14,3.51 -28.35,29.75 -16.03,45.08 4.95,6.17 12.52,10.43 20.57,10.05 6.68,-0.32 22.88,-8.04 23.12,-16.1 -0.62,20.49 -9.87,31.42 -22.27,35.33 3.77,29.62 -4.21,55.23 -18.91,74.13 61.08,29.48 159.32,15.13 171.75,-52.07 z m 39.71,-93.36 c 2.85,15.65 1.25,33.11 -6.32,51.73 47.51,17.08 59.03,66.31 47.92,115.85 l 0.1,-0.06 c 32.75,-22.05 58.44,-49.66 73.32,-95.69 17.44,-56.09 3.74,-112.39 -35.11,-153.5 l -0.11,-0.11 c -13.84,36.04 -40.38,66.37 -79.8,81.78 z m -127.43,-311.05 0.03,0.09 c 38.25,-9.45 78.95,-6.14 117.12,9.55 22.31,8.65 40.95,21.71 55.93,37.64 -13.18,-89.26 -75.58,-163.32 -170.51,-182.69 -52.13,-9.95 -100.29,-8.56 -140.86,13.17 62.29,17.12 117.74,62.72 138.29,122.24 z m -2.52,245.29 c 37.14,-19.48 87.42,-4.63 113.71,29.47 11.78,-49.82 4.42,-102.57 -46.39,-131.46 -37.23,-17.27 -100.81,-27.01 -141.72,-4.54 49.35,14.51 89.4,61.02 74.4,106.53 z m -24.58,21.15 c -7.89,-37.97 -44,-69.26 -83.77,-46.27 -31.19,16.83 -32.26,56.52 -11.52,78.2 3.25,-3.97 7.11,-7.95 11.8,-11.92 20.85,-17.5 50.74,-15.12 72.92,-1.76 3.01,-6.88 6.56,-12.94 10.57,-18.25 z m 14.98,101.17 c 58.33,25.67 82.79,-102.03 -15.19,-74.01 14.78,19.03 18.92,57.33 15.19,74.01 z m 344.48,134.51 c 6.63,9.61 12.3,20.07 17.32,30.92 3.73,-4.01 7.65,-7.81 11.65,-11.55 -9.6,-6.45 -28.41,-19.93 -28.97,-19.37 z m 26.12,-221.14 0.64,-1.82 c 23.66,-65.94 24.73,-135.73 9.1,-203.59 -19.7,-91.09 -62.3,-145.26 -133.91,-178.33 20.55,64.65 13.49,135.73 -34.36,188.92 l -0.02,0.02 c 17.49,35.22 22.77,76.33 15.55,114.3 62.51,-10.81 114.1,26.98 143,80.5 z m -425.7,459.09 c -6.85,3.85 -13.81,7.28 -20.98,10.38 3.21,3.75 6.85,7.28 10.6,10.39 56.94,49.02 160.56,43.35 222.96,15.52 7.71,-4.71 15.31,-9.85 22.7,-15.52 69.57,-52.24 126.19,-140.65 124.27,-229.18 -44.85,24.09 -99.01,27.51 -149.96,9.85 l -0.03,-0.01 c -16.54,25.34 -38.7,46.03 -63.93,55.68 -18.47,7.06 -38.24,9.1 -57.75,7.13 v 0.03 c 1.39,55.77 -40.35,109.29 -87.88,135.73 z m -101.05,-583.41 c 3.92,-3.47 8.14,-6.75 12.88,-9.64 8.65,-5.25 17.83,-8.69 27.22,-10.71 1.85,-41.88 35.9,-86.08 67.13,-108.23 l -0.08,-0.04 c -44.21,-20.98 -95.05,-30.5 -138.94,-14.45 -32.21,10.28 -57.58,42.5 -72.03,71.5 -3.96,8.03 -7.28,16.27 -9.96,24.84 l -0.02,0.08 c 41.6,-2.46 83.24,11.67 113.8,46.65 z m -14.54,16.34 c -53.46,9.09 -99.78,36.04 -114.58,94.05 -18.31,47.29 8.26,90.34 47.8,110.38 5.31,-36.25 35.04,-64.91 73.19,-72.82 -25.91,-32.1 -33.89,-91.22 -6.41,-131.61 z m 340.25,-415.87 c -66.63,-34.65 -83.63,-132.13 -82.39,-193.58 0.09,-5.7 0.12,-8.93 0.12,-8.93 0,0 -0.77,3.04 -2.13,8.6 -10.3,44.85 -12.39,90.49 -0.14,135.98 0.52,2.11 1.07,4 1.05,6.15 -14.32,-6.61 -21.33,-12.68 -30.92,-20.51 -10.97,-8.95 -50.02,-44.25 -56.47,-56.35 -7.48,-14.03 -4.91,-84.22 -4.69,-118.65 -9.97,34.01 -14.71,74.3 -13.81,109.4 -14.63,-12.91 -26.54,-29.08 -31.87,-34.51 -11.41,-11.8 -22.7,-24.77 -32.43,-37.14 -27.32,-34.76 -48.69,-71.67 -70.63,-109.28 7.51,16.97 15.7,33.7 24.55,50.17 51.37,95.18 127.03,181.11 217.68,248.96 2.59,0.71 5.17,1.43 7.71,2.24 37.88,12.07 71.18,35.21 97.66,64.61 28.92,15.35 58.93,29.01 89.64,40.99 24.55,-1.61 48.36,1.45 70.9,8.55 4.78,1.5 9.55,3.05 14.21,4.9 24.13,-54.34 69.15,-101.18 122.99,-132.54 -9.1,-14.56 -15.82,-29.61 -20.61,-44.88 l -0.69,-0.08 c -21.26,-3.14 -42.8,-10.28 -63.17,-20.53 6,31.68 5.28,64.79 -2.63,95.99 -6.65,26.3 -17.87,51.03 -32.62,73.64 -33.57,-8.09 -67.13,-17.26 -99.57,-28.78 -10.58,-3.74 -20.75,-27.59 -23.8,-36.11 -5.48,-14.92 -25.92,-102.86 -28.41,-131.24 -0.45,-5.65 -0.76,-8.8 -0.76,-8.8 0,0 -0.45,3.18 -1.27,8.69 -0.5,5.54 -2.23,13.43 -2.85,23.05 -1.57,24.17 -2.16,48.22 0.03,72.47 1.01,10.45 2.34,20.94 4.11,31.36 1.19,6.81 1.41,13.61 2.83,20.34 -17.28,-4.48 -35.83,-15.99 -51.62,-24.18 z m 289.3,-760.86 c -50.54,-9.58 -105.15,0.37 -129.43,50.49 -25.5,52.9 -7.5,134.99 58.61,141.78 6.09,-44.26 35.91,-84.47 72.47,-81.79 -9.41,-10.97 -16.53,-23.73 -19.98,-36.08 -8.41,-30.14 0.54,-55.49 18.33,-74.4 z m 216.91,-67.63 -0.02,0.04 c 42.38,-4.02 86.39,9.38 114.81,42.27 5.25,5.54 9.84,11.57 13.88,17.93 12.73,-39.6 12.4,-81.23 -11.03,-119.01 -41.86,-50.41 -90.77,-93.45 -154.57,-83.28 35.11,37.25 54.8,93.99 36.93,142.05 z m 143.85,171.47 h 0.01 c 40.03,0 76.64,29.55 99.23,62.94 -0.43,-64.01 -5.89,-126.95 -16.92,-189.88 -18.84,27.93 -46.02,49.77 -79.85,59.72 l -0.06,0.02 c 4.61,22.35 3.76,45.77 -2.41,67.2 z M 3218.2,2037.4 c -4.58,37.66 -11.59,114.73 -21.73,129.01 -8.75,12.33 -56.35,45.43 -69.6,53.69 -11.57,7.22 -20.08,12.87 -36.66,18.08 0.28,-2.35 1.14,-4.34 2.01,-6.57 19.75,-48 23.85,-98.17 18.87,-148.63 -0.71,-6.26 -1.12,-9.69 -1.12,-9.69 0,0 -0.42,3.53 -1.12,9.77 -7.25,67.34 -39.46,171.49 -117.12,200.04 -18.41,6.74 -40.29,16.72 -59.8,19.2 2.49,-7.15 3.69,-14.56 5.94,-21.84 3.39,-11.14 6.31,-22.41 8.87,-33.69 5.79,-26.19 8.51,-52.57 10.18,-79.19 0.66,-10.61 -0.12,-19.47 0.11,-25.6 -0.13,-6.13 -0.18,-9.67 -0.18,-9.67 0,0 -0.77,3.4 -2.06,9.51 -6.69,30.67 -41.33,123.91 -49.4,139.45 -4.53,8.89 -18.98,33.53 -31.06,36.14 -5.64,1.22 -11.33,2.27 -17,3.37 -14.7,11.28 -32.37,19.97 -53.32,24.77 2.3,9.45 3.77,19.06 4.6,28.71 68.01,-13.48 134.78,-33.97 197.33,-61.77 141.15,-62.66 265.27,-161.6 350.96,-281.06 11.98,-16.77 23.27,-33.9 33.85,-51.4 -29.24,38.04 -57.76,75.38 -92.47,109.55 -12.37,12.15 -26.52,24.75 -40.64,36.06 -6.58,5.18 -21.86,21.18 -39.65,33.25 5.88,-38.23 6.35,-82.93 0.21,-121.49 z m -19.22,680.55 -0.16,-0.03 c 42.41,39.98 68.64,95.97 66.52,169.8 74.31,41.37 126.76,123.61 149.47,203.77 4.88,17.24 8.49,35.08 10.99,53.19 l 0.11,-0.18 c 89.27,-165.27 -46.24,-395.08 -226.93,-426.55 z m 212.68,-150.82 c 7.35,0.88 34.48,5.52 40.73,9.05 7.23,4.1 25.77,35.8 35.33,51.06 -5.13,-17.81 -14.34,-36.92 -24.57,-52.16 10.08,1.6 19.86,5.39 23.74,6.3 8.34,2.01 16.96,4.57 24.73,7.3 21.8,7.69 41.58,17.99 61.81,28.45 -8.07,-5.39 -16.37,-10.48 -24.9,-15.27 -60.9,-34.07 -134.17,-51.58 -207.46,-50.06 -13.79,0.28 -27.64,1.48 -41.47,3.14 l -1.04,0.6 c 6.99,4.16 13.17,9.34 19.98,13.84 7.35,-1.26 15.44,-1.48 22.35,-2.09 39.12,-3.38 73.96,34.89 90.64,62.37 1.56,2.54 2.45,3.97 2.45,3.97 0,0 -0.52,-1.56 -1.47,-4.39 -8.03,-22.69 -19.9,-43.42 -38.06,-60.07 -0.82,-0.78 -1.59,-1.47 -2.19,-2.42 8.18,-1.1 12.97,-0.39 19.4,0.38 z m 199.78,1448.41 c -11.24,-11.03 -22.9,-23.66 -33.39,-36.29 -4.82,-5.89 -19.59,-19.48 -30.83,-35.43 34.79,4.71 75.35,4.39 110.25,-1.82 -34.25,-3.53 -104.31,-8.62 -117.44,-17.58 -11.32,-7.74 -42.16,-50.39 -49.86,-62.27 -6.75,-10.39 -12.02,-18.01 -17.02,-32.97 2.14,0.21 3.96,0.96 5.99,1.71 43.89,17.13 89.49,20.02 135.19,14.67 5.68,-0.75 8.78,-1.18 8.78,-1.18 0,0 -3.21,-0.32 -8.88,-0.86 -61.23,-5.46 -156.28,-32.97 -183.47,-102.97 -6.42,-16.59 -15.84,-36.29 -18.41,-53.95 6.53,2.14 13.27,3.11 19.91,5.03 10.17,2.89 20.44,5.35 30.72,7.5 23.87,4.81 47.85,6.85 72.04,7.92 l 2.55,0.04 c -1.26,-2.94 -2.5,-5.89 -3.68,-8.84 -29.13,-8.64 -69.78,-22.79 -90.92,-31.05 -15.57,2.88 -31.31,3.55 -47.03,1.37 -3.83,11.48 -8.35,22.77 -13.39,33.84 6.7,17.47 13.92,34.68 21.77,51.52 59.19,127.06 151.03,238.06 260.86,313.84 15.41,10.6 31.15,20.55 47.2,29.86 -35,-25.9 -69.36,-51.16 -100.94,-82.09 z m 375.83,-836.29 c 5.63,24.47 5.16,49.63 -1.51,71.64 0.4,1.02 0.61,1.84 0.72,2.15 1.82,5.67 1.28,11.99 2.89,17.87 3.42,12.53 11.24,23.77 22.05,30.83 23.65,15.52 52.34,8.56 70.54,-11.35 8.67,-9.31 14.66,-20.65 19.16,-32.43 0.95,-2.65 1.8,-5.3 2.65,-8.06 -47.98,3.02 -98.77,-24.9 -116.5,-70.65 z m 127.09,-47.73 c -8.77,-42.96 -50.65,-65.49 -92.27,-68 0.76,1.58 1.6,3.1 2.24,4.77 5.02,10.92 6.34,23.2 4.02,34.97 -3.43,17.38 -14.46,33.34 -29.4,43.01 40.03,32.7 121.26,61.28 115.41,-14.75 z m -70.83,-219.73 -0.14,0.04 c 22.47,35.89 25.39,84.82 2.52,122.67 42.79,-14.17 90.51,3.08 121.21,35.57 l 0.04,-0.07 c 17.45,-36.18 24.19,-78.03 6.96,-116.14 -23.77,-48.27 -83.17,-50.74 -130.59,-42.07 z m -120.74,-137.97 -0.01,0.01 c 20.5,27.45 33.66,60.59 31.88,89.63 34.37,-0.67 61.89,14.15 80.41,36.67 v 0 c 22.8,-28.37 56.31,-45.28 90.77,-49.35 -24.62,-83.38 -124.81,-112.93 -203.05,-76.96 z m -209.27,73.86 v 0.11 l 0.09,0.05 c -3.1,-68.01 40.96,-136 122.24,-131.03 18.22,1.11 37.13,9.97 54.38,23.45 l 0.02,-0.05 c 9.95,-23.87 25.47,-40.25 44.21,-50.52 -63.05,-46.56 -186.15,-10.49 -231.64,42.28 -7.49,7.6 -39.82,66.79 -56.62,95.05 21.94,0.11 44.85,6.53 67.32,20.66 z m 60.27,378.28 0.04,0.01 c -5.21,-33 5.93,-68.63 30.6,-95.63 -35.39,10.28 -70.1,5.78 -98.12,-9.25 l -0.06,0.07 c -35.97,47 10.7,89.81 67.54,104.8 z m 173.08,77.81 v -0.05 c -19.32,11.84 -44.98,16.54 -77.06,10.13 -32.47,-6.5 -56.22,-20.2 -72.15,-37.8 v 0 c -12.2,7.17 -25.69,12.31 -39.61,15.09 22.59,96.66 137.55,120.42 220.83,76.97 -17.34,-17.77 -29.44,-41.43 -32.01,-64.34 z m -82.78,-375.54 c 7.84,-23.2 23.73,-43.87 47.85,-55.33 -1.98,-7.96 -3.91,-15.76 -6.82,-22.31 -8.61,-19.35 -23.16,-30.88 -40.59,-41.7 -17.2,-10.67 -34.99,-10.12 -53.6,-2.4 -31.91,13.24 -47.18,43.46 -53.91,75.93 38.2,-2.76 78.14,13.71 107.07,45.81 z m 8.26,296.13 c 58.54,34.54 81.6,-20.68 94.38,-68.94 -15.29,-0.55 -30.68,-7.23 -40.69,-18.56 l -2.05,0.87 c -2.59,0.7 -5.33,0.33 -7.95,-0.24 -18.1,-4.01 -31.04,-19.06 -33.95,-37.08 -32.46,38.27 -67.51,90.11 -9.74,123.95 z m 9.01,-135.34 c 0.34,-16.57 6.76,-32.99 18.6,-44.73 1.41,-1.39 2.96,-2.58 4.48,-3.83 -32.18,-11.65 -47.75,-46.54 -45.98,-82.3 -56.54,-21.11 -115.91,-18.13 -129.74,58.96 -11.32,63.04 41.31,86.29 91.53,98.61 16.55,-12.9 37.06,-22.48 61.11,-26.71 z m 128.56,-42.74 c 2.88,-48.14 -11.83,-114.72 -71.34,-94.87 -34.9,16.12 -25.8,51.52 -5.31,75 26.73,-6.35 57.46,0.73 76.65,19.87 z m -26.55,36.04 c -10.32,-21.94 -43.86,-21.81 -62.02,-12.98 -11.95,6.76 -22.36,17.68 -18.82,32.17 2.41,9.85 8.37,18.81 16.42,24.98 -5.84,-12.42 -5.66,-27.51 0.48,-39.79 1.55,-3.12 3.56,-6.14 6.52,-7.98 2.46,-1.54 5.71,-2.05 8.35,-0.97 l 1.48,0.83 c -3.15,8.53 -2.97,18.24 0.47,26.66 6.4,15.64 22.17,24.79 37.51,14.81 12.64,-8.22 15.8,-24.56 9.61,-37.73 z m -380.34,55.2 c 8.07,9.12 15.58,18.72 22.4,28.85 1.98,-8.33 4.81,-16.45 8.46,-24.12 -10.59,0.54 -20.91,-1.31 -30.86,-4.73 z m 53.44,-26.85 c 5.57,-5.45 11.78,-10.06 18.52,-13.8 l 0.01,-0.01 c -28.87,-31.42 -40.67,-78.97 -20.05,-132.2 14.88,-38.09 39.29,-62.17 67.2,-73.93 -3.86,-10.51 -6.4,-21.43 -7.69,-32.45 -79.3,5.9 -122.53,52.78 -122.64,138.18 0,54.27 18.09,101.26 64.65,114.21 z m 85.94,696.47 c 19.56,12.62 44.13,23.52 71.32,31.81 l -16.7,-143.27 53.51,50.79 c 33.6,31.89 79.59,50.47 126.62,51.25 -0.06,-8.37 -0.11,-16.74 -0.13,-25.12 l -0.09,-33.93 33.01,7.83 c 16.44,3.9 33.57,5.88 50.91,5.88 51.59,0 102.51,-17.37 142.28,-48.09 -18.73,-50.03 -59.07,-92.32 -108.46,-112.62 l -60.46,-24.87 82.26,-33.55 c -37.2,-37.85 -89.28,-61.22 -142.5,-62.67 l -79.21,-2.15 c -5.69,0.1 -11.42,-0.06 -17.17,-0.47 l -9.26,-0.25 1.11,-0.56 c -59.34,-6.6 -118.47,-38.91 -141.02,-84.46 l -36,4.81 28.99,-24.55 c -2.23,-9.32 -3.1,-19.01 -2.06,-29.07 -13.75,3.4 -27.22,8.28 -40.05,14.59 0.01,34.57 -5.14,69.06 -15.88,101.52 -5.4,16.36 -13.19,33.74 -22.88,51.27 9.98,5.54 32.65,3.02 40.94,1.58 15.68,-2.6 102.25,-28.22 128.16,-40.06 5.14,-2.39 8.03,-3.69 8.03,-3.69 0,0 -2.54,1.97 -6.93,5.4 -4.57,3.17 -10.58,8.56 -18.65,13.86 -20.24,13.28 -40.87,25.67 -63.04,35.73 -9.59,4.28 -19.36,8.3 -29.3,11.91 -6.5,2.32 -12.54,5.48 -19.09,7.57 12.42,12.82 31.59,23.27 46.51,32.97 63.01,40.85 156.18,7.53 209.03,-23.88 4.91,-2.89 7.7,-4.51 7.7,-4.51 0,0 -2.27,2.17 -6.43,6.1 -33.93,31.08 -72.59,55.43 -118.2,67.23 -2.09,0.58 -4,1.04 -5.86,2.12 12.81,9.2 21.55,12.29 33.09,16.77 13.2,5.12 63.17,21.66 76.88,21.3 15.89,-0.41 75.67,-37.29 105.51,-54.47 -24.66,25.46 -57.36,49.46 -88.33,66 18.45,6.36 38.38,8.73 45.73,10.69 15.9,4.1 32.75,7.51 48.32,9.87 43.71,6.61 86.35,6.98 129.89,7.5 -18.46,1.85 -37.05,2.98 -55.75,3.41 -133.4,2.83 -272.83,-33.43 -395.19,-101.81 -31.91,-17.81 -62.76,-38.11 -92.32,-60.32 -2.84,4.17 -5.77,8.32 -8.81,12.43 17.66,12.34 33.34,27.37 45.89,45.09 -19.27,1.5 -38.54,3.11 -57.81,4.6 77.82,41.75 137.55,115.82 161.96,200.6 -15.99,-2.52 -32.03,-5.04 -48.04,-7.56 9.31,6.95 18.65,13.47 27.97,19.45 z m 19.66,329.66 c 183.39,-67.94 336.58,-198.02 434.06,-364.69 -41.14,21.8 -88.01,33.79 -135.27,33.79 -10.11,0 -20.18,-0.56 -30.13,-1.64 0.02,1.58 0.03,3.16 0.04,4.73 l 0.3,37.93 -23.84,2.78 c -48.27,5.65 -98.71,-4.38 -141.53,-27.11 l 9.93,85.3 -36.13,-7.31 c -21.71,-4.39 -42.71,-10.39 -62.38,-17.58 12.13,29.39 18.44,61.15 17.79,92.93 -19.38,-4.71 -38.75,-9.31 -58.12,-14.02 31.95,51.49 40.97,116.47 25.28,174.89 z M 573.508,5095.79 V 573.512 H 5095.79 V 5095.79 Z"
         id="path893"
         inkscape:connector-curvature="0" />
    </clipPath>
    <radialGradient
       fx="0"
       fy="0"
       cx="0"
       cy="0"
       r="1"
       gradientUnits="userSpaceOnUse"
       gradientTransform="matrix(-2847.57,2524.53,2524.53,2847.57,2436.83,3448.11)"
       spreadMethod="pad"
       id="radialGradient901">
      <stop
         style="stop-opacity:1;stop-color:#f2684c"
         offset="0"
         id="stop897" />
      <stop
         style="stop-opacity:1;stop-color:#f04054"
         offset="1"
         id="stop899" />
    </radialGradient>
    <clipPath
       clipPathUnits="userSpaceOnUse"
       id="clipPath1078">
      <path
         d="m 4305.9,3229.98 c -38.35,63.19 -105.63,107.59 -164.43,66.62 -1.23,49.69 -38.92,97.6 -95.46,100.13 l 31.73,24.89 -21.72,11.01 c 50.56,18.4 95.62,52.17 126.2,96.43 l 18.95,27.41 -35.28,14.39 c 34.75,25.52 63.03,60.16 80.91,99.31 41.12,-99.13 63.86,-207.8 63.86,-321.81 0,-40.07 -1.67,-79.5 -4.76,-118.38 z m -117.94,-130.46 c 14.74,29.47 16.72,64.99 -3.18,99.94 -13.76,24.15 -33.82,38.9 -56.04,45.88 4.17,7.17 7.17,14.55 9.31,22.15 94.4,-11.67 155.63,-139.15 103.29,-218.58 -13.48,20.97 -31.88,38.73 -53.38,50.61 z m -51.73,-427.65 c -13.61,-24.29 -28.01,-48.33 -43.19,-72.15 -15.19,-23.82 -31.16,-47.42 -47.91,-70.79 -2.34,-3.27 -4.81,-6.49 -7.17,-9.74 -28.48,46.67 -70.36,85.22 -118.93,110.96 16.09,12.77 27.44,30.03 31.16,52.58 97.94,-34.04 256.36,67.76 218.79,169.98 25.47,5.24 49.08,18.39 66.79,39.93 -26.32,-75.8 -59.49,-149.32 -99.54,-220.77 z m -376.19,-288.58 -35.03,0.14 7.77,-33.03 c 2.89,-12.33 5.86,-24.65 8.83,-36.97 -18.6,-4.58 -37.89,-6.89 -57.6,-6.89 -43.55,0 -85.79,11.27 -122.14,32.6 l -63.62,37.32 58.02,-161.58 c -31.69,1.44 -70.97,6.31 -107.59,19.44 -24.63,8.76 -49.9,19.69 -75.12,32.49 -6.99,3.53 -54.33,30.99 -66.07,38.92 l -34.36,23.19 -2.57,-15.08 c -11.01,3.67 -22.27,6.58 -33.73,8.52 34.67,20.21 69.33,40.31 104,60.52 -33.34,29.7 -74.78,57.97 -116.7,73.48 -13.18,4.92 -26.58,9.26 -40.11,13.17 23.21,16.06 45.09,35.07 63.95,56.27 1.37,-2.7 2.7,-5.43 4.22,-8.04 20.02,-34.53 52.19,-61.07 88.06,-78.57 -0.61,1.92 -1.45,14.56 -2.05,21.09 6.03,-2.09 28.75,-8.26 32.31,-9.01 11.63,-2.47 23.46,-4.3 35.34,-5.26 21.14,-1.78 44.64,2.01 64.95,8.06 -3.32,4.8 -6.64,9.6 -9.96,14.39 136.08,-23.99 275.58,-20.25 403.52,12.4 22.61,5.81 44.87,12.45 66.79,19.92 -53.06,-11.68 -104.98,-23.29 -159.97,-27.63 -19.58,-1.54 -41.03,-2.16 -61.51,-1.67 -9.49,0.3 -34.38,-2.45 -58.6,0.05 32.95,28.86 65.91,67.28 88.68,105.2 -31.41,-29.33 -93.62,-91.05 -112.82,-96.05 -16.56,-4.32 -81.96,1.65 -99.45,4.14 -15.3,2.17 -26.79,3.47 -44.96,11.02 1.24,1.17 2.61,2.03 4.04,2.85 16.16,2.7 31.74,8.84 45.21,18.16 -1.34,2.48 -2.68,4.97 -4.03,7.45 33.94,24.89 62.04,56.02 85.93,90.92 3.94,5.95 6.08,9.22 6.08,9.22 0,0 -2.93,-2.76 -8.08,-7.66 -2.04,-1.96 -4.28,-3.96 -6.45,-5.95 2.13,4.31 4.11,8.71 5.74,13.24 -24.14,25.64 -60.53,39.28 -95.61,35.81 6.68,8.01 13.31,16.04 19.99,24.05 -33.87,17.51 -76.13,17.82 -110.3,0.81 l 0.9,1.28 c 42.44,26.22 78.59,62.2 101.44,104.28 2.85,5.27 5.51,10.77 8.03,16.42 29.65,-1.74 58.99,-6.76 87.16,-14.96 -0.31,-5.34 -0.56,-10.69 -0.44,-16.09 l -89.85,-75.31 98.86,20.22 c 8.65,-27.9 23.44,-53.74 45.03,-73.28 33.84,-33.15 106.86,-51.91 169.21,-44.54 58.87,-16.64 111.78,-55.76 144.56,-107.33 -54.59,-69.55 -141.17,-112.14 -229.9,-112.14 z m -61.87,-222.09 c -69.84,-58.84 -149.31,-125.23 -241.03,-199.83 -0.97,81.34 -38.38,161.92 -100.98,214.07 11.12,8.3 22.28,16.5 33.43,24.72 13.8,-5.98 27.53,-11.42 41.09,-16.24 53.21,-19.08 110.04,-23.08 148.34,-23.08 5.46,0 10.85,0.08 16.19,0.24 l 36.85,1.09 -37.5,104.4 c 28.61,-8.94 58.78,-13.55 89.45,-13.55 34.12,0 67.29,5.71 98.59,16.96 l 22.57,8.11 -9.86,40.96 c -0.98,4.09 -1.98,8.2 -2.97,12.3 41.85,4.09 82.66,16.12 120.22,34.69 -63.94,-70.06 -135.36,-138.25 -214.39,-204.84 z M 3111.6,1688.5 c -10.58,-8.11 -21.27,-16.3 -32.08,-24.55 -21.62,-16.5 -43.7,-33.28 -66.27,-50.34 -25.07,-18.94 -50.79,-38.26 -77.06,-57.89 11.67,31.4 17.29,65.19 16.06,98.64 l 33.19,-18.71 9.72,31.87 c 15.69,51.47 14.17,107.74 -2.81,158.8 l 22.11,-10.18 -0.21,42.01 c -0.13,27.07 -3.46,53.89 -9.62,79.99 17.46,-7.86 35.51,-14.4 54.01,-19.36 -3.81,21.63 -7.63,43.38 -11.44,65.02 49.98,-63.02 130.86,-100.24 211.13,-97.13 -5.57,21.25 -11.03,42.5 -16.61,63.75 48.72,-29.02 107.83,-39.62 163.77,-30.87 -86.87,-70.02 -184.11,-146.82 -293.89,-231.05 z m -240.81,-146.22 c -66.31,16.3 -124,63.08 -153.04,125.19 l -14.36,30.71 -26.54,-21.11 c -6.56,-5.22 -13.1,-10.48 -19.63,-15.73 -28.45,37 -42.63,84.46 -38.46,131.08 l 2.78,31.12 c 24.1,4.5 48.34,13.15 70.63,24.89 30.08,-83.3 73.33,-160.65 127.57,-226.19 11.95,-14.39 24.39,-28.25 37.31,-41.58 -26.64,34.45 -52.83,68.1 -74.81,106.45 -7.82,13.67 -15.61,29 -22.27,44.01 -3.03,6.97 -13.55,24.07 -20.03,42.48 32.2,-14 71.32,-24.72 106.59,-28.24 -32,12.72 -98.03,36.66 -108.22,48.86 -7.42,8.88 -21.41,45.36 -28.13,64.71 10.05,6.38 19.53,13.36 28.18,20.88 28.99,-15.3 60.32,-24.69 92.89,-29.91 5.66,-0.82 8.77,-1.25 8.77,-1.25 0,0 -3.01,1.18 -8.32,3.24 -23.91,9.12 -52.38,23.58 -78.04,42.67 8.63,9.29 16.03,19.13 21.77,29.36 12.49,25.49 17.51,53.49 16.38,81.11 l 0.78,-0.27 c 9.16,-3.03 17.12,-4.39 22.44,-6.01 5.42,-1.3 8.54,-2.07 8.54,-2.07 0,0 -2.82,1.46 -7.88,4 -5.94,3.04 -14.6,8.26 -24.45,14.54 -1.69,17.39 -5.8,34.49 -12.28,50.53 3.68,0.11 7.2,0.47 10.73,0.81 11.88,-14.08 25.45,-26.71 40.82,-37.17 0.96,16.18 1.98,32.37 2.98,48.55 2.63,1.21 5.14,2.57 7.64,3.93 24.05,-39.38 55.76,-73.92 92.61,-101.68 11.18,-25.16 19.28,-51.7 23.49,-78.77 l -109.03,50.28 63.44,-84.66 c 31.93,-42.6 45.97,-97.92 39.4,-150.59 l -77.38,43.65 18.07,-62.86 c 14.75,-51.31 6.66,-109.21 -20.94,-154.96 z m -361.57,251.48 c -10.6,-4.92 -21.73,-8.45 -33.18,-10.49 -3.41,-0.64 -6.86,-1.02 -10.3,-1.43 2.75,-2.18 -57.66,45.67 -89.19,70.58 35.25,3.52 69.65,16.18 98.31,37.79 14.56,-38 42.92,-58.77 76.75,-66.58 -11.99,-12.42 -26.44,-22.37 -42.39,-29.87 z m -280.23,264.61 -0.02,0.15 c 40.48,-1.18 81.7,14.55 110.29,45.71 9.88,-6.25 20.87,-11.2 32.32,-14.69 28.62,-10.07 53.86,-5.77 73.7,6.95 17.14,-18.71 39.85,-31.56 64.5,-38.28 l -0.13,-0.16 c -63.37,-70.33 -261.07,-112.72 -280.66,0.32 z m -22.8,2.57 c -14.59,-15.53 -20.21,-35.7 -19.73,-57.04 -51.82,42.03 -102.61,84.18 -153.87,128.44 -35.75,30.86 -71.19,63.25 -106.03,96.97 13.82,38.49 41,72.65 78.93,101.37 22.59,-41.54 58.02,-70.97 103.94,-71.08 v 0 c -20.69,-44.57 -15.17,-98.39 10.84,-140.07 20.55,-32.91 52.02,-52.02 85.94,-58.58 z m -366.29,256.49 c -56.38,60.3 -110.31,124.12 -160.34,190.82 57.43,-6.69 117.56,9.55 163.16,45.28 -2.57,-19.78 -5.04,-39.54 -7.61,-59.31 72.62,6.45 141.16,49.27 178.89,111.77 -0.72,-15.36 -1.44,-30.76 -2.17,-46.14 -41,-49.36 -44.26,-136.65 -17.79,-204.56 -52.01,-1.61 -99.62,-22.96 -137.02,-55.98 -5.73,6.01 -11.44,12.04 -17.12,18.12 z m -239.91,304.62 c -8.28,12.76 -16.4,25.61 -24.35,38.53 -31.82,51.69 -60.96,104.68 -86.86,158.7 -2.94,6.13 -5.82,12.28 -8.67,18.43 l 4.29,-2.02 c 20.62,-9.73 43.93,-14.87 67.43,-14.87 1.22,0 2.44,0.01 3.66,0.04 l -4.25,-6.56 41.61,-5.85 c 32.13,-4.54 65.82,-1.35 96.65,8.72 l -4.01,-11.2 6.32,1.25 c -8.79,-12.37 -16.29,-25.64 -22.21,-39.64 14.68,-8.19 29.47,-16.37 44.16,-24.66 -46.81,-50.37 -71.17,-120.35 -67.54,-188.88 -4.51,6.45 -29.1,41.62 -46.23,68.01 z m -84.68,368.25 32.5,9.79 -17.09,29.31 -0.82,1.39 c 12.24,4.91 25.81,7.07 39.11,6.68 16.57,-15.3 36.06,-27.29 57.96,-34.46 -53.28,-9.48 -104.31,-27.99 -148.64,-54.96 -9.03,-5.51 -17.8,-11.34 -26.31,-17.48 21.45,12.1 42.41,24.01 65.67,33.17 8.28,3.26 17.5,6.37 26.44,8.87 4.15,1.13 14.58,5.62 25.4,7.75 -10.46,-16.88 -19.65,-37.9 -24.49,-57.34 9.72,16.87 28.51,51.86 36.17,56.57 6.6,4.06 35.74,10.14 43.65,11.38 6.91,1.09 12.07,2.05 20.95,1.18 -0.61,-1.05 -1.41,-1.82 -2.27,-2.7 -18.97,-18.7 -30.98,-41.58 -38.76,-66.41 -0.92,-3.1 -1.42,-4.8 -1.42,-4.8 0,0 0.91,1.58 2.5,4.38 12.66,22.68 36.03,52.26 64.73,64.88 4.59,-18.61 12.87,-35.45 24.05,-50.37 l -92.38,-50.26 c -18.1,-9.85 -39.85,-14.09 -61.1,-12.01 l 36.46,47.12 -64.77,-8.8 c -23.47,-3.24 -49.08,3.14 -68.95,16.54 14.41,28.48 41,51.42 71.41,60.58 z m -95.5,-1.23 c -1.78,5.36 -3.57,10.72 -5.28,16.1 -4.47,14.01 -8.69,28.06 -12.66,42.16 -4.18,14.85 -8.06,29.74 -11.67,44.68 44.26,-10.47 90.65,-8.49 133.72,10.1 2.17,-5.18 4.65,-10.22 7.26,-15.18 -19.56,-4.68 -38.13,-12.98 -54.11,-24.92 l -19.21,-14.35 11.15,-18.94 c -18.68,-10.05 -35.35,-23.63 -49.2,-39.65 z m -61.17,359.29 c 0,61.66 6.71,121.75 19.31,179.64 16.58,15.48 37.34,28.36 58.52,28.28 12.84,-21.62 26.86,-41.64 38.85,-51.91 l 0.07,-0.06 c -35.98,-45.61 -54.74,-108.92 -33.64,-162.88 15.94,-40.74 47.53,-71.99 84.66,-89.94 l -0.03,-0.06 c -12.2,-24.72 -17.88,-52.45 -17.34,-80.06 0.21,-9.85 1.18,-19.7 3,-29.33 -60.03,15.15 -113.07,49.85 -147.81,99.77 -3.67,35.38 -5.59,70.92 -5.59,106.55 z m 129.21,288.09 c 19.91,52.35 65.5,83.39 116.24,103.08 79.21,31.05 206.37,61.87 264.39,-14.98 l 0.05,-0.07 c -56.32,-15.52 -104.42,-63.77 -103.43,-122.52 -35.52,22.42 -85.75,18.79 -121.1,-27.49 -5.7,-7.51 -10.14,-15.03 -13.59,-22.48 -47.42,29.49 -103.21,8.38 -143.41,-34.26 l -0.01,0.02 c -18.41,31.9 -7.49,89.91 0.86,118.7 z m 50.08,230.88 c 29.11,37.05 61.28,71.59 96.11,103.25 4.97,4.52 10,8.98 15.09,13.39 128.39,111.21 290.83,184.12 469.58,201.11 -26.38,-30.45 -43.21,-68.88 -47.57,-108.93 l -26.16,4.55 -6.66,-23.04 c -1.77,-6.11 -3.11,-12.32 -4.15,-18.57 -69.7,13.38 -142.06,0.33 -198.87,-46.19 -29.01,-23.77 -63.37,-65.73 -71.29,-107.36 -0.21,-0.86 -0.43,-1.82 -0.54,-2.79 -2.89,1.07 -5.88,1.93 -8.88,2.79 -52.02,14.98 -109.82,13.7 -162.81,0 -19.17,-4.96 -37.54,-11.64 -54.96,-19.65 z m 627,289.01 c 25.75,-16.92 45.07,-44.06 51.94,-74.06 l 14.59,-63.77 35.01,56.9 c 14.18,-24.64 20.33,-54 16.4,-82.23 l -0.5,-3.58 c -8.05,14.44 -16.09,28.87 -24.16,43.31 -22.14,-23.94 -43.32,-53.83 -55.21,-84.24 -2.22,-5.64 -4.12,-11.41 -6.08,-17.15 -8.72,12.05 -18.64,23.24 -29.27,33.8 -0.45,5.73 -0.59,10.64 -0.08,13.25 2.01,10.37 32.71,45.52 47.23,63.2 -19.38,-13.38 -38.68,-32.19 -52.91,-50.68 -2.15,12.79 -1.53,26.11 -2,31.14 -0.95,10.87 -1.35,22.29 -1.19,32.75 0.45,29.36 4.86,57.35 9.28,85.94 -3.23,-11.9 -6,-23.95 -8.33,-36.16 -7.68,-40.71 -9.69,-83.23 -6.68,-125.91 -17.03,14.7 -35.78,27.77 -56.31,38.58 l 29.46,-4.97 -2.28,33.83 c -2.7,39.83 13.12,81.32 41.09,110.05 z m 151.17,24.52 c 82.86,-11.55 161.82,-35.22 235.1,-69.11 -53.78,-4.06 -105.97,-29.52 -141.31,-70.4 -7.92,11.03 -15.76,22.14 -23.6,33.16 -13.43,-7.49 -25.59,-17.05 -36.51,-27.88 l -13.45,24.64 -6.54,-8.89 c -8.86,29.74 -25.06,57.29 -47.33,78.86 l -23.95,23.21 -11.14,-18.12 c -9.95,15.98 -22.51,30.33 -36.88,42.45 -3.76,0.05 67.41,-2.6 105.61,-7.92 z m 155.72,-182.92 c -9.04,-8.87 -18.43,-19.03 -26.87,-29.2 -3.88,-4.74 -15.76,-15.68 -24.81,-28.51 28,3.79 60.64,3.53 88.72,-1.46 -27.56,-2.85 -83.93,-6.94 -94.5,-14.15 -3.07,-2.1 -7.95,-7.43 -13.28,-13.89 l -2.67,16.13 -11.77,-9.96 -0.07,1.98 c 37.4,46.98 80.81,88.19 128.49,121.09 12.41,8.53 25.07,16.54 37.99,24.04 -28.17,-20.85 -55.82,-41.18 -81.23,-66.07 z m 430.99,-169.88 c -39.82,-30.51 -73.22,-83.07 -84.78,-137.44 -70.32,60.15 -181.22,64.22 -272.52,28.47 81.99,90.45 235.06,121.28 357.3,108.97 z m -308.42,262.23 c -3.23,1.72 129.26,-80.39 187.6,-136.59 -34.01,5.48 -69.26,3.71 -102.47,-6.29 -22.27,-6.7 -45.22,-18.38 -66.73,-33.68 4.68,17.03 7.03,34.68 6.67,52.34 -15.59,-3.79 -31.18,-7.49 -46.77,-11.28 24.76,39.9 32.43,89.87 21.7,135.5 z m 342.24,-98.86 c -0.11,1.33 -0.21,3.4 -0.31,5.86 3.18,2.62 6.28,5.34 9.5,7.91 24.38,19.5 49.9,37.63 76.39,54.36 l 12.14,-14.04 -0.37,21.37 c 7.16,4.35 14.36,8.63 21.66,12.78 12.87,7.32 25.95,14.31 39.24,20.95 l 0.43,0.22 c -22.64,-44.58 -40.27,-92.33 -51.94,-141.64 -5.99,-25.29 -10.35,-51.16 -13.22,-77.28 -18.69,-3.45 -37.06,-8.36 -54.78,-14.94 -23.56,24.55 -42.3,55.12 -55.28,90.25 l 19.86,-7.11 z m 293.58,162.65 -12.98,-35.38 67.52,31.92 c -0.18,-37.04 -13.58,-74.11 -37.93,-102.16 l -69.21,-79.72 98.79,37.11 c -12.71,-45.23 -39.14,-87.07 -74.91,-116.96 l -16.46,-13.75 c -36.83,10.23 -75.67,14.18 -114.09,11.78 2.88,2.68 5.59,4.95 7.33,6.3 9.78,7.65 70.23,43.98 90.72,52.65 4.09,1.69 6.36,2.68 6.36,2.68 0,0 -2.47,-0.43 -6.76,-1.14 -4.24,-0.97 -10.52,-1.58 -17.82,-3.43 -18.34,-4.64 -36.36,-9.98 -53.86,-17.44 -7.53,-3.26 -15,-6.77 -22.32,-10.58 -4.77,-2.52 -9.78,-4.33 -14.44,-7 -0.82,13.92 3.27,30.48 5.57,44.18 9.73,57.85 78.11,93.91 124.08,107.76 4.26,1.31 6.67,2.06 6.67,2.06 0,0 -2.45,-0.16 -6.91,-0.48 -35.81,-3.13 -70.23,-12.55 -101.1,-32.58 -1.44,-0.89 -2.71,-1.76 -4.32,-2.26 1.47,12.24 4.29,18.9 7.81,27.91 4.02,10.31 20.87,47.81 28.32,55.52 8.63,8.93 97.56,39.33 109.94,43.01 z m 84.27,-708.16 -0.03,-0.1 -0.63,0.49 c -87.73,60.83 -167.43,39.02 -256.69,19.93 -6.22,68.13 -54.38,136.19 -123.92,149.49 -31.45,7.18 -64.77,7.87 -95.91,1.37 33.84,146.09 240.31,164.93 355.37,101.03 101.26,-56.2 145.68,-167.95 121.81,-272.21 z m 21.91,732.36 c 43.54,6.97 88.18,10.65 133.69,10.65 80.8,0 158.93,-11.42 232.88,-32.7 -64.29,-6.69 -126.12,-37.75 -168.48,-86.75 -9.85,13.7 -19.59,27.51 -29.33,41.21 -54.48,-30.4 -94.41,-85.74 -105.97,-147.07 -17.77,31.79 -35.43,63.58 -53.2,95.37 -2.72,-2.94 -5.42,-6.01 -8.11,-9.1 l 2.87,37.35 -14.28,-5.38 c 10.62,30.85 14.15,64.12 9.93,96.42 z m 93.05,-992.36 -0.02,0.01 c 2.74,81.61 -19.92,164.63 -74.55,224.28 l 0.18,0.18 c 49.77,53.62 65.19,127.05 54.8,199.73 73.11,-53.3 111.11,-162.27 127.92,-243.73 17.44,-84.67 8.45,-168.26 -25.69,-244.48 -20.66,28.8 -48.06,51.38 -82.64,64.01 z M 2813.21,2545.4 c 42.07,23.44 73.33,56.3 81.35,100.72 l 0.01,0.02 c 85.26,-14.69 179.48,-4.78 251.65,34.12 31.25,-23.33 67.32,-35.74 104.68,-38.95 -67.97,-44.75 -156.49,-70.54 -228.96,-88.42 -70.54,-17.34 -139.04,-17.66 -208.73,-7.49 z m -52.99,-22.97 c 5.87,1.97 11.67,4.04 17.35,6.27 21.94,-31.88 50.47,-57.52 82.81,-76.67 -18.77,-13.72 -36.1,-29.44 -51.54,-46.85 -3.04,42.87 -19.84,84.78 -48.62,117.25 z M 2619.35,2296 c 6.11,23.77 3.08,50.93 -13.21,77.73 -19.35,31.85 -53.63,50.61 -89.68,42.02 2.26,12.29 5.45,30.84 1.49,54 -2.55,16.13 -8.4,34.98 -19.57,53.59 110.29,-23.46 265.45,-171.21 175.51,-282.84 -10.62,24.36 -28.89,44.64 -54.54,55.5 z m -139.34,-63.49 c 53.38,-23.13 106.16,-0.68 129.64,39.74 41.76,-92.03 -52.5,-160.96 -144.06,-157.77 25.86,30.91 34,79.48 14.42,118.03 z m -27.27,82.59 c 10.07,18.91 56.46,54.95 74,26.37 30.59,-49.84 -3.52,-81.4 -49.16,-104.39 -0.79,1.36 -1.67,2.68 -2.53,4.01 23.14,26.02 2.81,61.78 -22.31,74.01 z m -72.8,-66.79 c 3.78,-5.83 8.41,-11.09 14,-15.25 18.34,-13.64 44.7,-15.49 64.77,-4.56 1.22,0.67 2.26,1.38 3.39,2.07 -10.84,-33.48 -32.29,-67.97 -69.64,-57.98 -34.69,11.92 -35.8,50.44 -12.52,75.72 z m -41.42,89.89 c 25.93,12.24 52.54,12.58 75.94,1.29 -21.37,-5.75 -38.96,-24.02 -43.52,-45.71 -2.32,-11.02 -1.19,-22.6 2.72,-33.16 -11.76,-0.39 -23.17,-4.63 -33.43,-11.42 -28.36,20.03 -42.18,74.68 -1.71,89 z m -203.4,146.93 c 36.86,39.22 82.8,53.17 132.79,54 l -0.87,-1.11 c -21.33,-30.33 -25.78,-65.09 -20.58,-89.89 4.62,-25.26 16.45,-41.84 25.09,-51.31 l 1.1,-1.19 c -20.22,-19.47 -27.45,-47.09 -25.57,-74.15 -40.79,23.88 -94.1,-1.9 -122.4,-37.12 l -0.05,0.07 c -38.97,55.77 -33.83,153.71 10.49,200.7 z m 19.8,137.98 c -11.39,-0.03 -22.82,-1.14 -34.13,-3.19 14.76,14.9 28.11,31.19 39.86,48.56 -4.36,-14.61 -6.56,-29.8 -5.73,-45.37 z m 38.25,104.75 -1.52,-1.92 c 0.42,1.01 0.9,2 1.31,3.02 z m 106.64,963.53 c -1.1,-4.68 -2.08,-9.39 -3.07,-14.11 -11.98,-3.97 -23.63,-8.83 -34.89,-14.43 2.18,8.87 4.65,17.64 7.16,26.41 4.8,1.17 9.6,2.42 14.35,3.93 10.07,3.24 19.72,7.22 28.9,11.89 -5.91,-4.16 -11.37,-9.11 -12.45,-13.69 z m 117.14,-73.45 c -4.49,-7.28 -8.56,-14.78 -11.99,-22.59 -30.4,-68.83 -26.97,-150.6 2.25,-219.97 -19.88,0.33 -38.42,-2.97 -55.58,-9.2 -20.78,40.07 -49.68,76.22 -83.85,99.28 1.87,3.74 3.84,7.47 5.95,11.18 33.61,59.09 86.17,105.54 143.22,141.3 z m -6.63,131.76 c 7.76,0.35 14.22,-0.34 18.69,-0.26 4.48,-0.17 7.07,-0.25 7.07,-0.25 0,0 -2.5,-0.52 -6.98,-1.38 -21.66,-4.32 -85.95,-26.76 -100.86,-33.48 3.6,2.32 7.17,4.68 10.58,7.23 9.49,7.08 18.14,15.13 25.87,23.92 15.14,2.34 30.33,3.55 45.63,4.22 z m 63.74,109.82 c -19.61,-1.74 -43.51,-6.37 -66.59,-14.78 0.42,5.29 0.58,10.57 0.45,15.84 21.85,3.3 44.02,3.18 66.23,0.58 4.56,-0.6 7.06,-0.95 7.06,-0.95 0,0 -2.58,-0.26 -7.15,-0.69 z m 64.92,-615.26 0.06,-0.02 c -80.51,-82.5 -92.58,-223.39 -7.05,-334.38 5.31,-6.92 10.85,-13.37 16.5,-19.59 l -0.09,0.01 c -91.95,13.7 -170.84,81.56 -200.38,177.9 -1.63,5.33 -3.04,10.7 -4.39,16.07 4.05,6.54 7.91,13.21 11.45,20.11 21.52,41.85 33.29,90.13 31.58,139.58 -0.62,17.33 -3.6,35.84 -8.56,54.62 12.81,15.86 28.36,29.82 47.2,40.97 1.07,-1.82 2.14,-3.64 3.21,-5.36 15.95,-25.58 36.82,-48.49 61.44,-65.93 15.2,-10.71 31.69,-18.2 49.03,-23.98 z m 359.01,119.87 c -6.37,-1.79 -12.39,-4.59 -17.87,-8.13 -19.57,47.15 -67.91,68.85 -113.15,61.3 38.29,97.95 232.59,78.53 231.13,-70.69 -29.03,16.87 -67.05,26.81 -100.11,17.52 z m 153.76,-104.34 c 35.65,-44.1 26.07,-101.74 -1.24,-149.57 0.69,21.85 -7.97,43.14 -30.93,60.35 1.05,-87.33 -113.03,-124 -179.84,-85.18 38.36,0.61 75.13,20.52 91.16,62.47 64.34,-25.66 121.34,45.63 120.85,111.93 z m 95.91,-301.49 c -56.71,-14.53 -114.59,15.9 -163.22,49.59 18.13,12.17 35.52,29.57 47.92,49.14 174.91,-23.14 139.74,252 15.78,229.84 -1.44,5.19 -3.32,10.26 -5.67,15.13 -8.33,17.36 -22.92,31.07 -39.04,41.35 36.66,25.24 53.33,63.78 54.33,104.15 39.37,1.05 84.89,-9.61 122.66,-28.18 96.19,-46.21 121.13,-148.69 105.89,-247.3 -12.17,-78.79 -51.29,-191.07 -138.65,-213.72 z m -392.88,-152.55 c 90.06,9.44 169.89,74.47 190.45,185.63 6.3,1.38 12.55,3.22 18.68,5.54 43.49,-76.45 115.38,-140.73 208.18,-136.29 10.8,0.51 21.31,1.9 31.54,4 -32.9,-38.74 -72.23,-66.16 -130.88,-77.42 -92.07,-17.68 -226.5,-30.73 -317.97,18.54 z m 108.19,532.86 c -5.31,-9.08 -8.81,-20.75 -9.54,-31.26 -0.4,-5.65 -0.04,-11.35 1.06,-16.9 -34.89,11.54 -72.9,5.32 -99.26,-15.77 2.96,55.18 46.74,95.45 115.87,74.13 -3.06,-3.04 -5.88,-6.36 -8.13,-10.2 z m 52.21,-178.96 c 6.86,6.14 12.43,13.65 15.82,22.26 20.11,48.64 -19.11,92.76 -63.53,105.93 7.06,7.96 16.16,14.12 26.17,17.69 6.37,2.27 13.11,3.55 19.88,3.63 7.04,0.08 11.58,-2.8 17.33,-6.7 22.56,-15.3 37.1,-42.52 39.53,-69.43 1.44,-15.86 -1.87,-32.13 -11.29,-45.17 -5.13,-7.1 -11.81,-12.95 -19.29,-17.47 -4.32,-2.61 -8.89,-4.77 -13.6,-6.58 -1.49,-0.57 -6.89,-2.95 -11.02,-4.16 z m -84.21,-0.43 c -8.69,7.53 -15.32,17.39 -18.56,28.93 -6.88,24.45 3.5,50.88 28.53,58.93 11.1,3.58 23.11,3.76 34.64,3.03 3.42,-0.21 6.82,-0.72 10.22,-1.11 2.07,-4.06 3.97,-8.2 5.51,-12.48 5.93,-16.41 3.32,-35.03 -6.56,-49.46 -11.46,-16.74 -33.05,-26.95 -53.78,-27.84 z m 79.07,-3.85 c 0.96,0.69 1.8,1.52 2.72,2.26 1.74,-1.19 3.48,-2.38 5.22,-3.42 -11.46,-5.34 -23.71,-9.14 -36.17,-10.26 10.33,2.58 19.2,4.87 28.23,11.42 z m -185.57,21.23 c 9.45,-47.95 45.72,-78.37 85.85,-87.98 -2.54,-29.65 7.91,-53.62 25.78,-70.68 -88.49,-21.52 -145.99,121.03 -134.19,218.56 6.06,-7.5 13.11,-14.24 21,-20.03 -1.63,-12.07 -1.3,-25.36 1.56,-39.87 z m -72.38,-115.83 c 35.66,-62.63 151.46,-132.47 197.84,-53.71 19.74,-12.9 44.75,-19.46 70.42,-18.71 -33.44,-35.41 -72.55,-68.2 -120.79,-75.43 -71.15,-9.69 -132.75,48.54 -168.29,103.58 -58.1,89.99 -40,168.05 16.19,232.01 -31.93,-53.42 -25.13,-135.48 4.63,-187.74 z m -283.21,-253.3 c -4.01,12.29 -7.29,25.08 -9.52,38.5 79.64,-43.46 175.98,-53.42 249.51,-6.11 l 0.12,0.08 c 21.94,-13.36 44.91,-22.82 68.15,-28.57 13.83,-76.9 86.09,-130.81 175.57,-155.86 l -0.11,-0.08 c -71.32,-47.22 -184.87,-25.02 -263.3,-16.17 -14.02,93.41 -123.91,162.75 -220.42,168.21 z m 117.11,-266.52 c -2.13,2.61 -4.29,5.21 -6.68,7.75 -24.8,26.18 -63.44,44.29 -106.59,44.28 -21.51,-1.07 -43.15,-5.27 -61.61,-16.04 -8.8,-4.45 -16.59,-10.03 -23.57,-16.17 -22.28,28.64 -52.11,47.27 -84.88,56.02 93.98,85.53 277.12,62.51 355.26,-36.5 -3.85,-1.07 -7.7,-2.25 -11.45,-3.64 -13.1,-4.75 -48.11,-18.45 -60.48,-35.7 z m -40.06,-193.43 c -9.88,67.5 -105.59,94.51 -162.31,56.85 -0.7,11.38 -0.08,26.8 5.64,42.56 5.49,16.71 16.94,32.19 32.1,43.45 7.63,5.49 15.79,10.15 24.57,12.37 8.23,3.38 18.1,3.71 28.09,4.61 20.47,-0.27 41.77,-4.77 59.06,-14.18 17.86,-9.79 33.42,-24.38 45.09,-39.26 12.09,-14.8 19.18,-29.85 24.76,-40.52 l 0.79,-1.85 c -24.87,-10.59 -49.01,-36.19 -57.79,-64.03 z m -10.17,-45.42 c 7.19,-2.99 14.13,-9.91 13.62,-18.26 -1.44,-23.67 -36.85,-20.76 -46.59,-4.99 -7.96,12.9 -2.59,32.09 10.91,38.97 4.24,2.17 9.04,3.23 12.98,5.9 1.91,1.29 3.56,3.18 4.56,5.27 3.79,-3.04 7.43,-6.48 10.94,-10.26 -13.72,2.71 -27.27,-2.57 -34.78,-21.02 3.28,8.06 22.32,6.9 28.36,4.39 z m 382.38,1309.95 0.02,-0.08 c -42.8,-13.62 -79.47,-42.13 -98.08,-88.1 -14.5,-35.79 -15.62,-87.03 3.9,-124.18 -10.32,-7.22 -19.79,-16.29 -27.59,-27.79 -13.34,-19.05 -19.45,-40.18 -19.88,-61.02 -44.39,-5.62 -82.57,-21.8 -113.46,-45.41 -5.46,7.17 -10.91,14.55 -16.15,21.82 -6.21,8.56 -13.28,16.91 -16.59,26.97 -2.68,8.25 -6.1,16.17 -8.46,24.62 -4.6,16.27 -7.38,33.08 -8.88,49.99 -4.82,56.2 0.64,122.56 35,169.55 52.34,71.5 174.58,116.25 266.63,111.32 -2.14,-19.69 -1.17,-39.17 3.54,-57.69 z m -1121.9,-676.93 c -0.53,-1.04 -1.13,-2.04 -1.65,-3.09 -2.45,-4.87 -3.86,-9.21 -5.19,-12.06 -1.18,-2.92 -1.86,-4.61 -1.86,-4.61 0,0 1.04,1.46 2.88,4.08 2.02,2.86 5.3,6.87 9.2,11.42 9.13,-10.96 19.82,-20.82 31.71,-29.52 l -10.2,-7.89 c -21.72,-16.79 -47.82,-27.73 -75.25,-31.76 l 48.93,75.23 z m 100.95,573.55 c -27.69,1.12 -62.83,-24.45 -60.26,-56.65 l -2.24,-0.17 c -25.99,17.06 -46.57,39.41 -22.53,70.79 28.85,38.03 60.14,13.47 85.03,-13.97 z m 162.54,20.44 c -49.09,34.72 -126.86,28.74 -119.16,-50.22 4.74,4.51 9.35,7.99 13.79,10.6 -0.76,-25.52 -29.56,-60.86 -52.86,-56.8 -20.14,3.51 -28.35,29.75 -16.03,45.08 4.95,6.17 12.52,10.43 20.57,10.05 6.68,-0.32 22.88,-8.04 23.12,-16.1 -0.62,20.49 -9.87,31.42 -22.27,35.33 3.77,29.62 -4.21,55.23 -18.91,74.13 61.08,29.48 159.32,15.13 171.75,-52.07 z m 39.71,-93.36 c 2.85,15.65 1.25,33.11 -6.32,51.73 47.51,17.08 59.03,66.31 47.92,115.85 l 0.1,-0.06 c 32.75,-22.05 58.44,-49.66 73.32,-95.69 17.44,-56.09 3.74,-112.39 -35.11,-153.5 l -0.11,-0.11 c -13.84,36.04 -40.38,66.37 -79.8,81.78 z m -127.43,-311.05 0.03,0.09 c 38.25,-9.45 78.95,-6.14 117.12,9.55 22.31,8.65 40.95,21.71 55.93,37.64 -13.18,-89.26 -75.58,-163.32 -170.51,-182.69 -52.13,-9.95 -100.29,-8.56 -140.86,13.17 62.29,17.12 117.74,62.72 138.29,122.24 z m -2.52,245.29 c 37.14,-19.48 87.42,-4.63 113.71,29.47 11.78,-49.82 4.42,-102.57 -46.39,-131.46 -37.23,-17.27 -100.81,-27.01 -141.72,-4.54 49.35,14.51 89.4,61.02 74.4,106.53 z m -24.58,21.15 c -7.89,-37.97 -44,-69.26 -83.77,-46.27 -31.19,16.83 -32.26,56.52 -11.52,78.2 3.25,-3.97 7.11,-7.95 11.8,-11.92 20.85,-17.5 50.74,-15.12 72.92,-1.76 3.01,-6.88 6.56,-12.94 10.57,-18.25 z m 14.98,101.17 c 58.33,25.67 82.79,-102.03 -15.19,-74.01 14.78,19.03 18.92,57.33 15.19,74.01 z m 344.48,134.51 c 6.63,9.61 12.3,20.07 17.32,30.92 3.73,-4.01 7.65,-7.81 11.65,-11.55 -9.6,-6.45 -28.41,-19.93 -28.97,-19.37 z m 26.12,-221.14 0.64,-1.82 c 23.66,-65.94 24.73,-135.73 9.1,-203.59 -19.7,-91.09 -62.3,-145.26 -133.91,-178.33 20.55,64.65 13.49,135.73 -34.36,188.92 l -0.02,0.02 c 17.49,35.22 22.77,76.33 15.55,114.3 62.51,-10.81 114.1,26.98 143,80.5 z m -425.7,459.09 c -6.85,3.85 -13.81,7.28 -20.98,10.38 3.21,3.75 6.85,7.28 10.6,10.39 56.94,49.02 160.56,43.35 222.96,15.52 7.71,-4.71 15.31,-9.85 22.7,-15.52 69.57,-52.24 126.19,-140.65 124.27,-229.18 -44.85,24.09 -99.01,27.51 -149.96,9.85 l -0.03,-0.01 c -16.54,25.34 -38.7,46.03 -63.93,55.68 -18.47,7.06 -38.24,9.1 -57.75,7.13 v 0.03 c 1.39,55.77 -40.35,109.29 -87.88,135.73 z m -101.05,-583.41 c 3.92,-3.47 8.14,-6.75 12.88,-9.64 8.65,-5.25 17.83,-8.69 27.22,-10.71 1.85,-41.88 35.9,-86.08 67.13,-108.23 l -0.08,-0.04 c -44.21,-20.98 -95.05,-30.5 -138.94,-14.45 -32.21,10.28 -57.58,42.5 -72.03,71.5 -3.96,8.03 -7.28,16.27 -9.96,24.84 l -0.02,0.08 c 41.6,-2.46 83.24,11.67 113.8,46.65 z m -14.54,16.34 c -53.46,9.09 -99.78,36.04 -114.58,94.05 -18.31,47.29 8.26,90.34 47.8,110.38 5.31,-36.25 35.04,-64.91 73.19,-72.82 -25.91,-32.1 -33.89,-91.22 -6.41,-131.61 z m 340.25,-415.87 c -66.63,-34.65 -83.63,-132.13 -82.39,-193.58 0.09,-5.7 0.12,-8.93 0.12,-8.93 0,0 -0.77,3.04 -2.13,8.6 -10.3,44.85 -12.39,90.49 -0.14,135.98 0.52,2.11 1.07,4 1.05,6.15 -14.32,-6.61 -21.33,-12.68 -30.92,-20.51 -10.97,-8.95 -50.02,-44.25 -56.47,-56.35 -7.48,-14.03 -4.91,-84.22 -4.69,-118.65 -9.97,34.01 -14.71,74.3 -13.81,109.4 -14.63,-12.91 -26.54,-29.08 -31.87,-34.51 -11.41,-11.8 -22.7,-24.77 -32.43,-37.14 -27.32,-34.76 -48.69,-71.67 -70.63,-109.28 7.51,16.97 15.7,33.7 24.55,50.17 51.37,95.18 127.03,181.11 217.68,248.96 2.59,0.71 5.17,1.43 7.71,2.24 37.88,12.07 71.18,35.21 97.66,64.61 28.92,15.35 58.93,29.01 89.64,40.99 24.55,-1.61 48.36,1.45 70.9,8.55 4.78,1.5 9.55,3.05 14.21,4.9 24.13,-54.34 69.15,-101.18 122.99,-132.54 -9.1,-14.56 -15.82,-29.61 -20.61,-44.88 l -0.69,-0.08 c -21.26,-3.14 -42.8,-10.28 -63.17,-20.53 6,31.68 5.28,64.79 -2.63,95.99 -6.65,26.3 -17.87,51.03 -32.62,73.64 -33.57,-8.09 -67.13,-17.26 -99.57,-28.78 -10.58,-3.74 -20.75,-27.59 -23.8,-36.11 -5.48,-14.92 -25.92,-102.86 -28.41,-131.24 -0.45,-5.65 -0.76,-8.8 -0.76,-8.8 0,0 -0.45,3.18 -1.27,8.69 -0.5,5.54 -2.23,13.43 -2.85,23.05 -1.57,24.17 -2.16,48.22 0.03,72.47 1.01,10.45 2.34,20.94 4.11,31.36 1.19,6.81 1.41,13.61 2.83,20.34 -17.28,-4.48 -35.83,-15.99 -51.62,-24.18 z m 289.3,-760.86 c -50.54,-9.58 -105.15,0.37 -129.43,50.49 -25.5,52.9 -7.5,134.99 58.61,141.78 6.09,-44.26 35.91,-84.47 72.47,-81.79 -9.41,-10.97 -16.53,-23.73 -19.98,-36.08 -8.41,-30.14 0.54,-55.49 18.33,-74.4 z m 216.91,-67.63 -0.02,0.04 c 42.38,-4.02 86.39,9.38 114.81,42.27 5.25,5.54 9.84,11.57 13.88,17.93 12.73,-39.6 12.4,-81.23 -11.03,-119.01 -41.86,-50.41 -90.77,-93.45 -154.57,-83.28 35.11,37.25 54.8,93.99 36.93,142.05 z m 143.85,171.47 h 0.01 c 40.03,0 76.64,29.55 99.23,62.94 -0.43,-64.01 -5.89,-126.95 -16.92,-189.88 -18.84,27.93 -46.02,49.77 -79.85,59.72 l -0.06,0.02 c 4.61,22.35 3.76,45.77 -2.41,67.2 z M 3218.2,2037.4 c -4.58,37.66 -11.59,114.73 -21.73,129.01 -8.75,12.33 -56.35,45.43 -69.6,53.69 -11.57,7.22 -20.08,12.87 -36.66,18.08 0.28,-2.35 1.14,-4.34 2.01,-6.57 19.75,-48 23.85,-98.17 18.87,-148.63 -0.71,-6.26 -1.12,-9.69 -1.12,-9.69 0,0 -0.42,3.53 -1.12,9.77 -7.25,67.34 -39.46,171.49 -117.12,200.04 -18.41,6.74 -40.29,16.72 -59.8,19.2 2.49,-7.15 3.69,-14.56 5.94,-21.84 3.39,-11.14 6.31,-22.41 8.87,-33.69 5.79,-26.19 8.51,-52.57 10.18,-79.19 0.66,-10.61 -0.12,-19.47 0.11,-25.6 -0.13,-6.13 -0.18,-9.67 -0.18,-9.67 0,0 -0.77,3.4 -2.06,9.51 -6.69,30.67 -41.33,123.91 -49.4,139.45 -4.53,8.89 -18.98,33.53 -31.06,36.14 -5.64,1.22 -11.33,2.27 -17,3.37 -14.7,11.28 -32.37,19.97 -53.32,24.77 2.3,9.45 3.77,19.06 4.6,28.71 68.01,-13.48 134.78,-33.97 197.33,-61.77 141.15,-62.66 265.27,-161.6 350.96,-281.06 11.98,-16.77 23.27,-33.9 33.85,-51.4 -29.24,38.04 -57.76,75.38 -92.47,109.55 -12.37,12.15 -26.52,24.75 -40.64,36.06 -6.58,5.18 -21.86,21.18 -39.65,33.25 5.88,-38.23 6.35,-82.93 0.21,-121.49 z m -19.22,680.55 -0.16,-0.03 c 42.41,39.98 68.64,95.97 66.52,169.8 74.31,41.37 126.76,123.61 149.47,203.77 4.88,17.24 8.49,35.08 10.99,53.19 l 0.11,-0.18 c 89.27,-165.27 -46.24,-395.08 -226.93,-426.55 z m 212.68,-150.82 c 7.35,0.88 34.48,5.52 40.73,9.05 7.23,4.1 25.77,35.8 35.33,51.06 -5.13,-17.81 -14.34,-36.92 -24.57,-52.16 10.08,1.6 19.86,5.39 23.74,6.3 8.34,2.01 16.96,4.57 24.73,7.3 21.8,7.69 41.58,17.99 61.81,28.45 -8.07,-5.39 -16.37,-10.48 -24.9,-15.27 -60.9,-34.07 -134.17,-51.58 -207.46,-50.06 -13.79,0.28 -27.64,1.48 -41.47,3.14 l -1.04,0.6 c 6.99,4.16 13.17,9.34 19.98,13.84 7.35,-1.26 15.44,-1.48 22.35,-2.09 39.12,-3.38 73.96,34.89 90.64,62.37 1.56,2.54 2.45,3.97 2.45,3.97 0,0 -0.52,-1.56 -1.47,-4.39 -8.03,-22.69 -19.9,-43.42 -38.06,-60.07 -0.82,-0.78 -1.59,-1.47 -2.19,-2.42 8.18,-1.1 12.97,-0.39 19.4,0.38 z m 199.78,1448.41 c -11.24,-11.03 -22.9,-23.66 -33.39,-36.29 -4.82,-5.89 -19.59,-19.48 -30.83,-35.43 34.79,4.71 75.35,4.39 110.25,-1.82 -34.25,-3.53 -104.31,-8.62 -117.44,-17.58 -11.32,-7.74 -42.16,-50.39 -49.86,-62.27 -6.75,-10.39 -12.02,-18.01 -17.02,-32.97 2.14,0.21 3.96,0.96 5.99,1.71 43.89,17.13 89.49,20.02 135.19,14.67 5.68,-0.75 8.78,-1.18 8.78,-1.18 0,0 -3.21,-0.32 -8.88,-0.86 -61.23,-5.46 -156.28,-32.97 -183.47,-102.97 -6.42,-16.59 -15.84,-36.29 -18.41,-53.95 6.53,2.14 13.27,3.11 19.91,5.03 10.17,2.89 20.44,5.35 30.72,7.5 23.87,4.81 47.85,6.85 72.04,7.92 l 2.55,0.04 c -1.26,-2.94 -2.5,-5.89 -3.68,-8.84 -29.13,-8.64 -69.78,-22.79 -90.92,-31.05 -15.57,2.88 -31.31,3.55 -47.03,1.37 -3.83,11.48 -8.35,22.77 -13.39,33.84 6.7,17.47 13.92,34.68 21.77,51.52 59.19,127.06 151.03,238.06 260.86,313.84 15.41,10.6 31.15,20.55 47.2,29.86 -35,-25.9 -69.36,-51.16 -100.94,-82.09 z m 375.83,-836.29 c 5.63,24.47 5.16,49.63 -1.51,71.64 0.4,1.02 0.61,1.84 0.72,2.15 1.82,5.67 1.28,11.99 2.89,17.87 3.42,12.53 11.24,23.77 22.05,30.83 23.65,15.52 52.34,8.56 70.54,-11.35 8.67,-9.31 14.66,-20.65 19.16,-32.43 0.95,-2.65 1.8,-5.3 2.65,-8.06 -47.98,3.02 -98.77,-24.9 -116.5,-70.65 z m 127.09,-47.73 c -8.77,-42.96 -50.65,-65.49 -92.27,-68 0.76,1.58 1.6,3.1 2.24,4.77 5.02,10.92 6.34,23.2 4.02,34.97 -3.43,17.38 -14.46,33.34 -29.4,43.01 40.03,32.7 121.26,61.28 115.41,-14.75 z m -70.83,-219.73 -0.14,0.04 c 22.47,35.89 25.39,84.82 2.52,122.67 42.79,-14.17 90.51,3.08 121.21,35.57 l 0.04,-0.07 c 17.45,-36.18 24.19,-78.03 6.96,-116.14 -23.77,-48.27 -83.17,-50.74 -130.59,-42.07 z m -120.74,-137.97 -0.01,0.01 c 20.5,27.45 33.66,60.59 31.88,89.63 34.37,-0.67 61.89,14.15 80.41,36.67 v 0 c 22.8,-28.37 56.31,-45.28 90.77,-49.35 -24.62,-83.38 -124.81,-112.93 -203.05,-76.96 z m -209.27,73.86 v 0.11 l 0.09,0.05 c -3.1,-68.01 40.96,-136 122.24,-131.03 18.22,1.11 37.13,9.97 54.38,23.45 l 0.02,-0.05 c 9.95,-23.87 25.47,-40.25 44.21,-50.52 -63.05,-46.56 -186.15,-10.49 -231.64,42.28 -7.49,7.6 -39.82,66.79 -56.62,95.05 21.94,0.11 44.85,6.53 67.32,20.66 z m 60.27,378.28 0.04,0.01 c -5.21,-33 5.93,-68.63 30.6,-95.63 -35.39,10.28 -70.1,5.78 -98.12,-9.25 l -0.06,0.07 c -35.97,47 10.7,89.81 67.54,104.8 z m 173.08,77.81 v -0.05 c -19.32,11.84 -44.98,16.54 -77.06,10.13 -32.47,-6.5 -56.22,-20.2 -72.15,-37.8 v 0 c -12.2,7.17 -25.69,12.31 -39.61,15.09 22.59,96.66 137.55,120.42 220.83,76.97 -17.34,-17.77 -29.44,-41.43 -32.01,-64.34 z m -82.78,-375.54 c 7.84,-23.2 23.73,-43.87 47.85,-55.33 -1.98,-7.96 -3.91,-15.76 -6.82,-22.31 -8.61,-19.35 -23.16,-30.88 -40.59,-41.7 -17.2,-10.67 -34.99,-10.12 -53.6,-2.4 -31.91,13.24 -47.18,43.46 -53.91,75.93 38.2,-2.76 78.14,13.71 107.07,45.81 z m 8.26,296.13 c 58.54,34.54 81.6,-20.68 94.38,-68.94 -15.29,-0.55 -30.68,-7.23 -40.69,-18.56 l -2.05,0.87 c -2.59,0.7 -5.33,0.33 -7.95,-0.24 -18.1,-4.01 -31.04,-19.06 -33.95,-37.08 -32.46,38.27 -67.51,90.11 -9.74,123.95 z m 9.01,-135.34 c 0.34,-16.57 6.76,-32.99 18.6,-44.73 1.41,-1.39 2.96,-2.58 4.48,-3.83 -32.18,-11.65 -47.75,-46.54 -45.98,-82.3 -56.54,-21.11 -115.91,-18.13 -129.74,58.96 -11.32,63.04 41.31,86.29 91.53,98.61 16.55,-12.9 37.06,-22.48 61.11,-26.71 z m 128.56,-42.74 c 2.88,-48.14 -11.83,-114.72 -71.34,-94.87 -34.9,16.12 -25.8,51.52 -5.31,75 26.73,-6.35 57.46,0.73 76.65,19.87 z m -26.55,36.04 c -10.32,-21.94 -43.86,-21.81 -62.02,-12.98 -11.95,6.76 -22.36,17.68 -18.82,32.17 2.41,9.85 8.37,18.81 16.42,24.98 -5.84,-12.42 -5.66,-27.51 0.48,-39.79 1.55,-3.12 3.56,-6.14 6.52,-7.98 2.46,-1.54 5.71,-2.05 8.35,-0.97 l 1.48,0.83 c -3.15,8.53 -2.97,18.24 0.47,26.66 6.4,15.64 22.17,24.79 37.51,14.81 12.64,-8.22 15.8,-24.56 9.61,-37.73 z m -380.34,55.2 c 8.07,9.12 15.58,18.72 22.4,28.85 1.98,-8.33 4.81,-16.45 8.46,-24.12 -10.59,0.54 -20.91,-1.31 -30.86,-4.73 z m 53.44,-26.85 c 5.57,-5.45 11.78,-10.06 18.52,-13.8 l 0.01,-0.01 c -28.87,-31.42 -40.67,-78.97 -20.05,-132.2 14.88,-38.09 39.29,-62.17 67.2,-73.93 -3.86,-10.51 -6.4,-21.43 -7.69,-32.45 -79.3,5.9 -122.53,52.78 -122.64,138.18 0,54.27 18.09,101.26 64.65,114.21 z m 85.94,696.47 c 19.56,12.62 44.13,23.52 71.32,31.81 l -16.7,-143.27 53.51,50.79 c 33.6,31.89 79.59,50.47 126.62,51.25 -0.06,-8.37 -0.11,-16.74 -0.13,-25.12 l -0.09,-33.93 33.01,7.83 c 16.44,3.9 33.57,5.88 50.91,5.88 51.59,0 102.51,-17.37 142.28,-48.09 -18.73,-50.03 -59.07,-92.32 -108.46,-112.62 l -60.46,-24.87 82.26,-33.55 c -37.2,-37.85 -89.28,-61.22 -142.5,-62.67 l -79.21,-2.15 c -5.69,0.1 -11.42,-0.06 -17.17,-0.47 l -9.26,-0.25 1.11,-0.56 c -59.34,-6.6 -118.47,-38.91 -141.02,-84.46 l -36,4.81 28.99,-24.55 c -2.23,-9.32 -3.1,-19.01 -2.06,-29.07 -13.75,3.4 -27.22,8.28 -40.05,14.59 0.01,34.57 -5.14,69.06 -15.88,101.52 -5.4,16.36 -13.19,33.74 -22.88,51.27 9.98,5.54 32.65,3.02 40.94,1.58 15.68,-2.6 102.25,-28.22 128.16,-40.06 5.14,-2.39 8.03,-3.69 8.03,-3.69 0,0 -2.54,1.97 -6.93,5.4 -4.57,3.17 -10.58,8.56 -18.65,13.86 -20.24,13.28 -40.87,25.67 -63.04,35.73 -9.59,4.28 -19.36,8.3 -29.3,11.91 -6.5,2.32 -12.54,5.48 -19.09,7.57 12.42,12.82 31.59,23.27 46.51,32.97 63.01,40.85 156.18,7.53 209.03,-23.88 4.91,-2.89 7.7,-4.51 7.7,-4.51 0,0 -2.27,2.17 -6.43,6.1 -33.93,31.08 -72.59,55.43 -118.2,67.23 -2.09,0.58 -4,1.04 -5.86,2.12 12.81,9.2 21.55,12.29 33.09,16.77 13.2,5.12 63.17,21.66 76.88,21.3 15.89,-0.41 75.67,-37.29 105.51,-54.47 -24.66,25.46 -57.36,49.46 -88.33,66 18.45,6.36 38.38,8.73 45.73,10.69 15.9,4.1 32.75,7.51 48.32,9.87 43.71,6.61 86.35,6.98 129.89,7.5 -18.46,1.85 -37.05,2.98 -55.75,3.41 -133.4,2.83 -272.83,-33.43 -395.19,-101.81 -31.91,-17.81 -62.76,-38.11 -92.32,-60.32 -2.84,4.17 -5.77,8.32 -8.81,12.43 17.66,12.34 33.34,27.37 45.89,45.09 -19.27,1.5 -38.54,3.11 -57.81,4.6 77.82,41.75 137.55,115.82 161.96,200.6 -15.99,-2.52 -32.03,-5.04 -48.04,-7.56 9.31,6.95 18.65,13.47 27.97,19.45 z m 19.66,329.66 c 183.39,-67.94 336.58,-198.02 434.06,-364.69 -41.14,21.8 -88.01,33.79 -135.27,33.79 -10.11,0 -20.18,-0.56 -30.13,-1.64 0.02,1.58 0.03,3.16 0.04,4.73 l 0.3,37.93 -23.84,2.78 c -48.27,5.65 -98.71,-4.38 -141.53,-27.11 l 9.93,85.3 -36.13,-7.31 c -21.71,-4.39 -42.71,-10.39 -62.38,-17.58 12.13,29.39 18.44,61.15 17.79,92.93 -19.38,-4.71 -38.75,-9.31 -58.12,-14.02 31.95,51.49 40.97,116.47 25.28,174.89 z M 573.508,5095.79 V 573.512 H 5095.79 V 5095.79 Z"
         id="path1076"
         inkscape:connector-curvature="0" />
    </clipPath>
    <radialGradient
       fx="0"
       fy="0"
       cx="0"
       cy="0"
       r="1"
       gradientUnits="userSpaceOnUse"
       gradientTransform="matrix(-100.45595,-89.059814,89.059814,-100.45595,379.50029,211.53023)"
       spreadMethod="pad"
       id="radialGradient1084">
      <stop
         style="stop-opacity:1;stop-color:#f2684c"
         offset="0"
         id="stop1080" />
      <stop
         style="stop-opacity:1;stop-color:#f04054"
         offset="1"
         id="stop1082" />
    </radialGradient>
  </defs>
  <metadata
     id="metadata5">
    <rdf:RDF>
      <cc:Work
         rdf:about="">
        <dc:format>image/svg+xml</dc:format>
        <dc:type
           rdf:resource="http://purl.org/dc/dcmitype/StillImage" />
        <dc:title></dc:title>
      </cc:Work>
    </rdf:RDF>
  </metadata>
  <defs
     id="defs1942">
    <marker
       style="overflow:visible"
       refY="-1.687441"
       refX="-4"
       orient="auto"
       id="CheckToolsAndOPMarker">
      <path
         id="path1939"
         style="fill:#000044; fill-rule:evenodd;stroke:none;"
         d="	m -4.588864,-1.687441 0.0,0.0 L -9.177728,0.0 c 0.73311,-0.996261 0.728882,-2.359329 0.0,-3.374882" />
    </marker>
  </defs>
  <defs
     id="defs1947">
    <marker
       style="overflow:visible"
       refY="-1.687441"
       refX="-4"
       orient="auto"
       id="DrawCurveMarker">
      <path
         id="path1944"
         style="fill:#000044; fill-rule:evenodd;stroke:none;"
         d="m -4.588864,-1.687441 0.0,0.0 L -9.177728,0.0 c 0.73311,-0.996261 0.728882,-2.359329 0.0,-3.374882" />
    </marker>
  </defs>
  <defs
     id="defs1952">
    <marker
       style="overflow:visible"
       refY="-1.687441"
       refX="4"
       orient="auto"
       id="DrawCurveMarker_r">
      <path
         id="path1949"
         style="fill:#000044; fill-rule:evenodd;stroke:none;"
         d="m 4.588864,-1.687441 0.0,0.0 L 9.177728,0.0 c -0.73311,-0.996261 -0.728882,-2.359329 0.0,-3.374882" />
    </marker>
  </defs>
  <defs
     id="defs1957">
    <marker
       style="overflow:visible"
       refY="-1.687441"
       refX="-4"
       orient="auto"
       id="InOutPathMarker">
      <path
         id="path1954"
         style="fill:#0072a7; fill-rule:evenodd;stroke:none;"
         d="m -4.588864,-1.687441 0.0,0.0 L -9.177728,0.0 c 0.73311,-0.996261 0.728882,-2.359329 0.0,-3.374882" />
    </marker>
  </defs>
  <path
     style="fill:none;stroke:#000000;stroke-width:0.81884331px;stroke-linecap:butt;stroke-linejoin:miter;stroke-opacity:1"
     d="M 581.9546 561.25984 L 755.9055 561.25983 "
     id="path2627"
     transform="scale(0.26458333)" />
  <path
     style="fill:none;stroke:#000000;stroke-width:0.81884331px;stroke-linecap:butt;stroke-linejoin:miter;stroke-opacity:1"
     d="M 37.795283 561.25984 L 214.84384 561.25984 "
     id="path2611"
     transform="scale(0.26458333)" />
</svg>
